G04*
G04 #@! TF.GenerationSoftware,Altium Limited,Altium Designer,22.1.2 (22)*
G04*
G04 Layer_Color=65535*
%FSLAX25Y25*%
%MOIN*%
G70*
G04*
G04 #@! TF.SameCoordinates,DDE4A02C-EC50-4DC0-B3EF-D35DCD8E266D*
G04*
G04*
G04 #@! TF.FilePolarity,Positive*
G04*
G01*
G75*
%ADD10C,0.00984*%
%ADD11C,0.00787*%
%ADD12C,0.01000*%
D10*
X449990Y311043D02*
X449252Y311470D01*
Y310617D01*
X449990Y311043D01*
D11*
X172606Y437736D02*
X173394D01*
X172606Y442264D02*
X173394D01*
X172606Y447736D02*
X173394D01*
X172606Y452264D02*
X173394D01*
X144606Y357736D02*
X145394D01*
X144606Y362264D02*
X145394D01*
X172606Y357736D02*
X173394D01*
X172606Y362264D02*
X173394D01*
X172606Y347736D02*
X173394D01*
X172606Y352264D02*
X173394D01*
X172606Y337736D02*
X173394D01*
X172606Y342264D02*
X173394D01*
X405606Y368736D02*
X406394D01*
X405606Y373264D02*
X406394D01*
X434833Y309528D02*
X440354D01*
Y350472D01*
X434833D02*
X440354D01*
X421736Y361606D02*
Y362394D01*
X426264Y361606D02*
Y362394D01*
X314606Y377736D02*
X315394D01*
X314606Y382264D02*
X315394D01*
X314606Y387736D02*
X315394D01*
X314606Y392264D02*
X315394D01*
X314606Y397736D02*
X315394D01*
X314606Y402264D02*
X315394D01*
X314606Y407736D02*
X315394D01*
X314606Y412264D02*
X315394D01*
X319756Y186228D02*
Y189772D01*
X314244Y186228D02*
Y189772D01*
X314606Y447736D02*
X315394D01*
X314606Y452264D02*
X315394D01*
X449606Y298264D02*
X450394D01*
X449606Y293736D02*
X450394D01*
X405898Y445630D02*
Y455276D01*
X418102Y445630D02*
Y455276D01*
Y464724D02*
Y474961D01*
X405898Y464724D02*
Y474961D01*
X407669Y443858D02*
X416331D01*
X418102Y445630D01*
X405898D02*
X407669Y443858D01*
X405898Y474961D02*
X418102D01*
X403102Y277724D02*
Y287370D01*
X390898Y277724D02*
Y287370D01*
Y258039D02*
Y268276D01*
X403102Y258039D02*
Y268276D01*
X392669Y289142D02*
X401331D01*
X390898Y287370D02*
X392669Y289142D01*
X401331D02*
X403102Y287370D01*
X390898Y258039D02*
X403102D01*
X408756Y235228D02*
Y238772D01*
X403244Y235228D02*
Y238772D01*
X396756Y235228D02*
Y238772D01*
X391244Y235228D02*
Y238772D01*
X385614Y235228D02*
Y238772D01*
X380102Y235228D02*
Y238772D01*
X382898Y445488D02*
Y455134D01*
X395102Y445488D02*
Y455134D01*
Y464583D02*
Y474819D01*
X382898Y464583D02*
Y474819D01*
X384669Y443716D02*
X393331D01*
X395102Y445488D01*
X382898D02*
X384669Y443716D01*
X382898Y474819D02*
X395102D01*
X379823Y415386D02*
X383514D01*
X388386Y410514D01*
X361614D02*
X366486Y415386D01*
X370177D01*
X388386Y388614D02*
Y410514D01*
X379823Y388614D02*
X388386D01*
X361614D02*
X370177D01*
X361614D02*
Y410514D01*
X416823Y415386D02*
X420514D01*
X425386Y410514D01*
X398614D02*
X403486Y415386D01*
X407177D01*
X425386Y388614D02*
Y410514D01*
X416823Y388614D02*
X425386D01*
X398614D02*
X407177D01*
X398614D02*
Y410514D01*
X454823Y415386D02*
X458514D01*
X463386Y410514D01*
X436614D02*
X441486Y415386D01*
X445177D01*
X463386Y388614D02*
Y410514D01*
X454823Y388614D02*
X463386D01*
X436614D02*
X445177D01*
X436614D02*
Y410514D01*
X157606Y305736D02*
X158394D01*
X157606Y310264D02*
X158394D01*
X172606Y387736D02*
X173394D01*
X172606Y392264D02*
X173394D01*
D12*
X306276Y184512D02*
Y279000D01*
X154701Y184512D02*
X306276D01*
X154701Y279000D02*
X306276D01*
X154701Y184512D02*
Y279000D01*
X163913Y268409D02*
X184543D01*
X163913Y242228D02*
X184543D01*
Y268409D01*
X163913Y242228D02*
Y268409D01*
X420500Y213200D02*
Y268200D01*
Y213200D02*
X467500D01*
Y268200D01*
X420500D02*
X467500D01*
X205500Y301000D02*
X278500D01*
X205500D02*
Y325000D01*
X278500Y301000D02*
Y325000D01*
X205500D02*
X278500D01*
Y475000D01*
X205500D02*
X278500D01*
X205500Y325000D02*
Y475000D01*
X108500Y417000D02*
Y447000D01*
X131500D01*
Y417000D02*
Y447000D01*
X108500Y417000D02*
X131500D01*
X127500D02*
Y447000D01*
X52000Y320000D02*
X110000D01*
X52000Y296000D02*
Y320000D01*
Y296000D02*
X110000D01*
Y320000D01*
X134000Y296000D02*
Y320000D01*
X110000D02*
X134000D01*
X110000Y296000D02*
X134000D01*
X467500Y442051D02*
Y482051D01*
X435000Y442051D02*
X467500D01*
X435000D02*
Y482051D01*
X467500D01*
X445000Y442051D02*
Y482051D01*
X334000Y181500D02*
X384000D01*
X334000D02*
Y204500D01*
X384000D01*
Y181500D02*
Y204500D01*
X334000Y200500D02*
X384000D01*
X127500Y375000D02*
Y405000D01*
X108500Y375000D02*
X131500D01*
Y405000D01*
X108500D02*
X131500D01*
X108500Y375000D02*
Y405000D01*
X177132Y263197D02*
Y261197D01*
Y262197D01*
X171134D01*
Y263197D01*
Y261197D01*
Y258198D02*
X177132D01*
Y255199D01*
X176132Y254200D01*
X174133D01*
X173133Y255199D01*
Y258198D01*
X177132Y252200D02*
X171134Y248202D01*
X177132D02*
X171134Y252200D01*
X109000Y456498D02*
Y451500D01*
X110000Y450500D01*
X111999D01*
X112999Y451500D01*
Y456498D01*
X114998Y450500D02*
Y454499D01*
X116997Y456498D01*
X118997Y454499D01*
Y450500D01*
Y453499D01*
X114998D01*
X120996Y450500D02*
Y456498D01*
X123995D01*
X124995Y455498D01*
Y453499D01*
X123995Y452499D01*
X120996D01*
X122995D02*
X124995Y450500D01*
X126994Y456498D02*
X130993D01*
X128993D01*
Y450500D01*
X136502Y276999D02*
X138502D01*
X137502D01*
Y271001D01*
X136502D01*
X138502D01*
X145500Y275999D02*
X144500Y276999D01*
X142500D01*
X141501Y275999D01*
Y272001D01*
X142500Y271001D01*
X144500D01*
X145500Y272001D01*
X147499Y275999D02*
X148499Y276999D01*
X150498D01*
X151498Y275999D01*
Y275000D01*
X150498Y274000D01*
X149498D01*
X150498D01*
X151498Y273000D01*
Y272001D01*
X150498Y271001D01*
X148499D01*
X147499Y272001D01*
X52500Y325900D02*
Y329899D01*
X54499Y331898D01*
X56499Y329899D01*
Y325900D01*
Y328899D01*
X52500D01*
X58498Y325900D02*
Y331898D01*
X62497Y325900D01*
Y331898D01*
X64496D02*
X68495D01*
X66496D01*
Y325900D01*
X309400Y456800D02*
Y462798D01*
X312399D01*
X313399Y461798D01*
Y459799D01*
X312399Y458799D01*
X309400D01*
X311399D02*
X313399Y456800D01*
X315398D02*
Y462798D01*
X318397D01*
X319397Y461798D01*
Y459799D01*
X318397Y458799D01*
X315398D01*
X317599Y204998D02*
X316599Y205998D01*
X314600D01*
X313600Y204998D01*
Y201000D01*
X314600Y200000D01*
X316599D01*
X317599Y201000D01*
X319598Y204998D02*
X320598Y205998D01*
X322597D01*
X323597Y204998D01*
Y203999D01*
X322597Y202999D01*
X323597Y201999D01*
Y201000D01*
X322597Y200000D01*
X320598D01*
X319598Y201000D01*
Y201999D01*
X320598Y202999D01*
X319598Y203999D01*
Y204998D01*
X320598Y202999D02*
X322597D01*
X338499Y212998D02*
X337499Y213998D01*
X335500D01*
X334500Y212998D01*
Y211999D01*
X335500Y210999D01*
X337499D01*
X338499Y209999D01*
Y209000D01*
X337499Y208000D01*
X335500D01*
X334500Y209000D01*
X344497Y213998D02*
X340498D01*
Y208000D01*
X344497D01*
X340498Y210999D02*
X342497D01*
X346496Y208000D02*
Y213998D01*
X350495Y208000D01*
Y213998D01*
X356493Y212998D02*
X355493Y213998D01*
X353494D01*
X352494Y212998D01*
Y211999D01*
X353494Y210999D01*
X355493D01*
X356493Y209999D01*
Y209000D01*
X355493Y208000D01*
X353494D01*
X352494Y209000D01*
X361491Y213998D02*
X359492D01*
X358492Y212998D01*
Y209000D01*
X359492Y208000D01*
X361491D01*
X362491Y209000D01*
Y212998D01*
X361491Y213998D01*
X364490Y208000D02*
Y213998D01*
X367489D01*
X368489Y212998D01*
Y210999D01*
X367489Y209999D01*
X364490D01*
X366490D02*
X368489Y208000D01*
X374487Y212998D02*
X373487Y213998D01*
X371488D01*
X370488Y212998D01*
Y211999D01*
X371488Y210999D01*
X373487D01*
X374487Y209999D01*
Y209000D01*
X373487Y208000D01*
X371488D01*
X370488Y209000D01*
X376486Y208000D02*
Y213998D01*
X379485D01*
X380485Y212998D01*
Y210999D01*
X379485Y209999D01*
X376486D01*
X382485Y213998D02*
X384484D01*
X383484D01*
Y208000D01*
X382485D01*
X384484D01*
X112999Y413498D02*
X111999Y414498D01*
X110000D01*
X109000Y413498D01*
Y412499D01*
X110000Y411499D01*
X111999D01*
X112999Y410499D01*
Y409500D01*
X111999Y408500D01*
X110000D01*
X109000Y409500D01*
X118997Y414498D02*
X114998D01*
Y408500D01*
X118997D01*
X114998Y411499D02*
X116997D01*
X120996Y408500D02*
Y414498D01*
X124995Y408500D01*
Y414498D01*
X130993Y413498D02*
X129993Y414498D01*
X127994D01*
X126994Y413498D01*
Y412499D01*
X127994Y411499D01*
X129993D01*
X130993Y410499D01*
Y409500D01*
X129993Y408500D01*
X127994D01*
X126994Y409500D01*
X135991Y414498D02*
X133992D01*
X132992Y413498D01*
Y409500D01*
X133992Y408500D01*
X135991D01*
X136991Y409500D01*
Y413498D01*
X135991Y414498D01*
X138990Y408500D02*
Y414498D01*
X141989D01*
X142989Y413498D01*
Y411499D01*
X141989Y410499D01*
X138990D01*
X140990D02*
X142989Y408500D01*
X144988D02*
Y412499D01*
X146988Y414498D01*
X148987Y412499D01*
Y408500D01*
Y411499D01*
X144988D01*
X150986Y414498D02*
Y408500D01*
X153985D01*
X154985Y409500D01*
Y413498D01*
X153985Y414498D01*
X150986D01*
X160983Y413498D02*
X159984Y414498D01*
X157984D01*
X156984Y413498D01*
Y409500D01*
X157984Y408500D01*
X159984D01*
X160983Y409500D01*
X152400Y314800D02*
Y320798D01*
X155399D01*
X156399Y319798D01*
Y317799D01*
X155399Y316799D01*
X152400D01*
X154399D02*
X156399Y314800D01*
X158398D02*
X160397D01*
X159398D01*
Y320798D01*
X158398Y319798D01*
X166395Y314800D02*
Y320798D01*
X163396Y317799D01*
X167395D01*
X134502Y348001D02*
Y353999D01*
X137502D01*
X138501Y352999D01*
Y351000D01*
X137502Y350000D01*
X134502D01*
X136502D02*
X138501Y348001D01*
X140500D02*
X142500D01*
X141500D01*
Y353999D01*
X140500Y352999D01*
X145499D02*
X146499Y353999D01*
X148498D01*
X149498Y352999D01*
Y352000D01*
X148498Y351000D01*
X147498D01*
X148498D01*
X149498Y350000D01*
Y349001D01*
X148498Y348001D01*
X146499D01*
X145499Y349001D01*
X167400Y456800D02*
Y462798D01*
X170399D01*
X171399Y461798D01*
Y459799D01*
X170399Y458799D01*
X167400D01*
X169399D02*
X171399Y456800D01*
X173398D02*
X175397D01*
X174398D01*
Y462798D01*
X173398Y461798D01*
X182395Y456800D02*
X178396D01*
X182395Y460799D01*
Y461798D01*
X181395Y462798D01*
X179396D01*
X178396Y461798D01*
X166502Y427001D02*
Y432999D01*
X169501D01*
X170501Y431999D01*
Y430000D01*
X169501Y429000D01*
X166502D01*
X168501D02*
X170501Y427001D01*
X172500D02*
X174499D01*
X173500D01*
Y432999D01*
X172500Y431999D01*
X177499Y427001D02*
X179498D01*
X178498D01*
Y432999D01*
X177499Y431999D01*
X167400Y396800D02*
Y402798D01*
X170399D01*
X171399Y401798D01*
Y399799D01*
X170399Y398799D01*
X167400D01*
X169399D02*
X171399Y396800D01*
X173398D02*
X175397D01*
X174398D01*
Y402798D01*
X173398Y401798D01*
X178396D02*
X179396Y402798D01*
X181395D01*
X182395Y401798D01*
Y397800D01*
X181395Y396800D01*
X179396D01*
X178396Y397800D01*
Y401798D01*
X180002Y358001D02*
Y363999D01*
X183001D01*
X184000Y362999D01*
Y361000D01*
X183001Y360000D01*
X180002D01*
X182001D02*
X184000Y358001D01*
X186000Y359001D02*
X186999Y358001D01*
X188999D01*
X189998Y359001D01*
Y362999D01*
X188999Y363999D01*
X186999D01*
X186000Y362999D01*
Y362000D01*
X186999Y361000D01*
X189998D01*
X180002Y348001D02*
Y353999D01*
X183001D01*
X184000Y352999D01*
Y351000D01*
X183001Y350000D01*
X180002D01*
X182001D02*
X184000Y348001D01*
X186000Y352999D02*
X186999Y353999D01*
X188999D01*
X189998Y352999D01*
Y352000D01*
X188999Y351000D01*
X189998Y350000D01*
Y349001D01*
X188999Y348001D01*
X186999D01*
X186000Y349001D01*
Y350000D01*
X186999Y351000D01*
X186000Y352000D01*
Y352999D01*
X186999Y351000D02*
X188999D01*
X180002Y338001D02*
Y343999D01*
X183001D01*
X184000Y342999D01*
Y341000D01*
X183001Y340000D01*
X180002D01*
X182001D02*
X184000Y338001D01*
X186000Y343999D02*
X189998D01*
Y342999D01*
X186000Y339001D01*
Y338001D01*
X296002Y407001D02*
Y412999D01*
X299001D01*
X300000Y411999D01*
Y410000D01*
X299001Y409000D01*
X296002D01*
X298001D02*
X300000Y407001D01*
X305998Y412999D02*
X303999Y411999D01*
X302000Y410000D01*
Y408001D01*
X302999Y407001D01*
X304999D01*
X305998Y408001D01*
Y409000D01*
X304999Y410000D01*
X302000D01*
X296002Y397001D02*
Y402999D01*
X299001D01*
X300000Y401999D01*
Y400000D01*
X299001Y399000D01*
X296002D01*
X298001D02*
X300000Y397001D01*
X305998Y402999D02*
X302000D01*
Y400000D01*
X303999Y401000D01*
X304999D01*
X305998Y400000D01*
Y398001D01*
X304999Y397001D01*
X302999D01*
X302000Y398001D01*
X296002Y387001D02*
Y392999D01*
X299001D01*
X300000Y391999D01*
Y390000D01*
X299001Y389000D01*
X296002D01*
X298001D02*
X300000Y387001D01*
X304999D02*
Y392999D01*
X302000Y390000D01*
X305998D01*
X296002Y377001D02*
Y382999D01*
X299001D01*
X300000Y381999D01*
Y380000D01*
X299001Y379000D01*
X296002D01*
X298001D02*
X300000Y377001D01*
X302000Y381999D02*
X302999Y382999D01*
X304999D01*
X305998Y381999D01*
Y381000D01*
X304999Y380000D01*
X303999D01*
X304999D01*
X305998Y379000D01*
Y378001D01*
X304999Y377001D01*
X302999D01*
X302000Y378001D01*
X401002Y359001D02*
Y364999D01*
X404001D01*
X405000Y363999D01*
Y362000D01*
X404001Y361000D01*
X401002D01*
X403001D02*
X405000Y359001D01*
X410998D02*
X407000D01*
X410998Y363000D01*
Y363999D01*
X409999Y364999D01*
X407999D01*
X407000Y363999D01*
X431001Y358001D02*
Y363999D01*
X434000D01*
X435000Y362999D01*
Y361000D01*
X434000Y360000D01*
X431001D01*
X433001D02*
X435000Y358001D01*
X436999D02*
X438999D01*
X437999D01*
Y363999D01*
X436999Y362999D01*
X421000Y287398D02*
Y281400D01*
X424999D01*
X426998D02*
X428997D01*
X427998D01*
Y287398D01*
X426998Y286398D01*
X192600Y484498D02*
X194599D01*
X193600D01*
Y478500D01*
X192600D01*
X194599D01*
X201597Y483498D02*
X200597Y484498D01*
X198598D01*
X197598Y483498D01*
Y479500D01*
X198598Y478500D01*
X200597D01*
X201597Y479500D01*
X207595Y478500D02*
X203596D01*
X207595Y482499D01*
Y483498D01*
X206595Y484498D01*
X204596D01*
X203596Y483498D01*
X414502Y303999D02*
X416502D01*
X415502D01*
Y298001D01*
X414502D01*
X416502D01*
X423499Y302999D02*
X422500Y303999D01*
X420500D01*
X419500Y302999D01*
Y299001D01*
X420500Y298001D01*
X422500D01*
X423499Y299001D01*
X425498Y298001D02*
X427498D01*
X426498D01*
Y303999D01*
X425498Y302999D01*
X391500Y298498D02*
Y292500D01*
X394499D01*
X395499Y293500D01*
Y297498D01*
X394499Y298498D01*
X391500D01*
X397498Y297498D02*
X398498Y298498D01*
X400497D01*
X401497Y297498D01*
Y296499D01*
X400497Y295499D01*
X399497D01*
X400497D01*
X401497Y294499D01*
Y293500D01*
X400497Y292500D01*
X398498D01*
X397498Y293500D01*
X383500Y484198D02*
Y478200D01*
X386499D01*
X387499Y479200D01*
Y483198D01*
X386499Y484198D01*
X383500D01*
X393497Y478200D02*
X389498D01*
X393497Y482199D01*
Y483198D01*
X392497Y484198D01*
X390498D01*
X389498Y483198D01*
X406500Y484398D02*
Y478400D01*
X409499D01*
X410499Y479400D01*
Y483398D01*
X409499Y484398D01*
X406500D01*
X412498Y478400D02*
X414497D01*
X413498D01*
Y484398D01*
X412498Y483398D01*
X144501Y293999D02*
X143501Y294999D01*
X141502D01*
X140502Y293999D01*
Y290001D01*
X141502Y289001D01*
X143501D01*
X144501Y290001D01*
X146501Y289001D02*
X148500D01*
X147500D01*
Y294999D01*
X146501Y293999D01*
X151499D02*
X152499Y294999D01*
X154498D01*
X155498Y293999D01*
Y290001D01*
X154498Y289001D01*
X152499D01*
X151499Y290001D01*
Y293999D01*
X174000D02*
X173001Y294999D01*
X171001D01*
X170002Y293999D01*
Y290001D01*
X171001Y289001D01*
X173001D01*
X174000Y290001D01*
X176000D02*
X176999Y289001D01*
X178999D01*
X179998Y290001D01*
Y293999D01*
X178999Y294999D01*
X176999D01*
X176000Y293999D01*
Y293000D01*
X176999Y292000D01*
X179998D01*
X406599Y253998D02*
X405599Y254998D01*
X403600D01*
X402600Y253998D01*
Y250000D01*
X403600Y249000D01*
X405599D01*
X406599Y250000D01*
X408598Y254998D02*
X412597D01*
Y253998D01*
X408598Y250000D01*
Y249000D01*
X394599Y253998D02*
X393599Y254998D01*
X391600D01*
X390600Y253998D01*
Y250000D01*
X391600Y249000D01*
X393599D01*
X394599Y250000D01*
X400597Y254998D02*
X398597Y253998D01*
X396598Y251999D01*
Y250000D01*
X397598Y249000D01*
X399597D01*
X400597Y250000D01*
Y250999D01*
X399597Y251999D01*
X396598D01*
X383399Y253998D02*
X382399Y254998D01*
X380400D01*
X379400Y253998D01*
Y250000D01*
X380400Y249000D01*
X382399D01*
X383399Y250000D01*
X389397Y254998D02*
X385398D01*
Y251999D01*
X387397Y252999D01*
X388397D01*
X389397Y251999D01*
Y250000D01*
X388397Y249000D01*
X386398D01*
X385398Y250000D01*
X448399Y307798D02*
X447399Y308798D01*
X445400D01*
X444400Y307798D01*
Y303800D01*
X445400Y302800D01*
X447399D01*
X448399Y303800D01*
X453397Y302800D02*
Y308798D01*
X450398Y305799D01*
X454397D01*
X362599Y432098D02*
X361599Y433098D01*
X359600D01*
X358600Y432098D01*
Y428100D01*
X359600Y427100D01*
X361599D01*
X362599Y428100D01*
X364598Y432098D02*
X365598Y433098D01*
X367597D01*
X368597Y432098D01*
Y431099D01*
X367597Y430099D01*
X366597D01*
X367597D01*
X368597Y429099D01*
Y428100D01*
X367597Y427100D01*
X365598D01*
X364598Y428100D01*
X399599Y432098D02*
X398599Y433098D01*
X396600D01*
X395600Y432098D01*
Y428100D01*
X396600Y427100D01*
X398599D01*
X399599Y428100D01*
X405597Y427100D02*
X401598D01*
X405597Y431099D01*
Y432098D01*
X404597Y433098D01*
X402598D01*
X401598Y432098D01*
X437599D02*
X436599Y433098D01*
X434600D01*
X433600Y432098D01*
Y428100D01*
X434600Y427100D01*
X436599D01*
X437599Y428100D01*
X439598Y427100D02*
X441597D01*
X440598D01*
Y433098D01*
X439598Y432098D01*
X435500Y485600D02*
Y489599D01*
X437499Y491598D01*
X439499Y489599D01*
Y485600D01*
Y488599D01*
X435500D01*
X441498Y491598D02*
Y485600D01*
X445497D01*
X451495Y491598D02*
X447496D01*
Y485600D01*
X451495D01*
X447496Y488599D02*
X449496D01*
X453494Y491598D02*
X457493Y485600D01*
Y491598D02*
X453494Y485600D01*
X459492Y491598D02*
X463491D01*
X461492D01*
Y485600D01*
M02*
