G04*
G04 #@! TF.GenerationSoftware,Altium Limited,Altium Designer,22.1.2 (22)*
G04*
G04 Layer_Color=255*
%FSLAX25Y25*%
%MOIN*%
G70*
G04*
G04 #@! TF.SameCoordinates,A6313862-7C9A-4C61-A90E-EA9183BEBBA3*
G04*
G04*
G04 #@! TF.FilePolarity,Positive*
G04*
G01*
G75*
%ADD33R,0.03937X0.05315*%
%ADD34R,0.06102X0.05315*%
%ADD35R,0.08504X0.03583*%
%ADD36R,0.40984X0.42520*%
%ADD37R,0.05315X0.03937*%
%ADD38R,0.20500X0.26000*%
%ADD39R,0.06299X0.04331*%
%ADD40R,0.09055X0.09055*%
%ADD41R,0.07284X0.14961*%
%ADD43R,0.04921X0.11811*%
%ADD44R,0.10000X0.05000*%
%ADD45O,0.10000X0.05000*%
%ADD46R,0.09000X0.07000*%
%ADD47O,0.09000X0.07000*%
%ADD48C,0.09055*%
%ADD49R,0.09843X0.09843*%
%ADD50C,0.09843*%
%ADD51O,0.07000X0.09000*%
%ADD52R,0.07000X0.09000*%
D33*
X176543Y440000D02*
D03*
X169457D02*
D03*
X176543Y450000D02*
D03*
X169457D02*
D03*
X148543Y360000D02*
D03*
X141457D02*
D03*
X176543D02*
D03*
X169457D02*
D03*
X176543Y350000D02*
D03*
X169457D02*
D03*
X176543Y340000D02*
D03*
X169457D02*
D03*
X409543Y371000D02*
D03*
X402457D02*
D03*
X318543Y380000D02*
D03*
X311457D02*
D03*
X318543Y390000D02*
D03*
X311457D02*
D03*
X318543Y400000D02*
D03*
X311457D02*
D03*
X318543Y410000D02*
D03*
X311457D02*
D03*
X318543Y450000D02*
D03*
X311457D02*
D03*
X446457Y296000D02*
D03*
X453543D02*
D03*
X161543Y308000D02*
D03*
X154457D02*
D03*
X176543Y390000D02*
D03*
X169457D02*
D03*
D34*
X144000Y300126D02*
D03*
Y308000D02*
D03*
X172000Y300126D02*
D03*
Y308000D02*
D03*
D35*
X449498Y315000D02*
D03*
Y320000D02*
D03*
Y325000D02*
D03*
Y330000D02*
D03*
Y335000D02*
D03*
Y340000D02*
D03*
Y345000D02*
D03*
D36*
X412766Y330000D02*
D03*
D37*
X424000Y358457D02*
D03*
Y365543D02*
D03*
D38*
X444000Y216400D02*
D03*
Y265000D02*
D03*
D39*
X317000Y194102D02*
D03*
Y181898D02*
D03*
X406000Y243102D02*
D03*
Y230898D02*
D03*
X394000Y243102D02*
D03*
Y230898D02*
D03*
X382858Y243102D02*
D03*
Y230898D02*
D03*
D40*
X412000Y451142D02*
D03*
Y468858D02*
D03*
X397000Y281858D02*
D03*
Y264142D02*
D03*
X389000Y451000D02*
D03*
Y468716D02*
D03*
D41*
X375000Y412728D02*
D03*
Y391272D02*
D03*
X412000Y412728D02*
D03*
Y391272D02*
D03*
X450000Y412728D02*
D03*
Y391272D02*
D03*
D43*
X176197Y279000D02*
D03*
X196197D02*
D03*
X186197D02*
D03*
X226000D02*
D03*
X236000D02*
D03*
X246000D02*
D03*
X256000D02*
D03*
X266000D02*
D03*
X276000D02*
D03*
X286000D02*
D03*
X296000D02*
D03*
X196197Y184512D02*
D03*
X186197D02*
D03*
X176197D02*
D03*
X226000D02*
D03*
X236000D02*
D03*
X246000D02*
D03*
X256000D02*
D03*
X266000D02*
D03*
X276000D02*
D03*
X286000D02*
D03*
X296000D02*
D03*
D44*
X197000Y470000D02*
D03*
Y460000D02*
D03*
Y430000D02*
D03*
Y400000D02*
D03*
Y380000D02*
D03*
Y330000D02*
D03*
X287000Y470000D02*
D03*
Y420000D02*
D03*
Y370000D02*
D03*
Y330000D02*
D03*
D45*
X197000Y450000D02*
D03*
Y440000D02*
D03*
Y420000D02*
D03*
Y410000D02*
D03*
Y390000D02*
D03*
Y370000D02*
D03*
Y360000D02*
D03*
Y350000D02*
D03*
Y340000D02*
D03*
X287000Y460000D02*
D03*
Y450000D02*
D03*
Y440000D02*
D03*
Y430000D02*
D03*
Y410000D02*
D03*
Y400000D02*
D03*
Y390000D02*
D03*
Y380000D02*
D03*
Y360000D02*
D03*
Y350000D02*
D03*
Y340000D02*
D03*
D46*
X120000Y422000D02*
D03*
Y380000D02*
D03*
D47*
Y432000D02*
D03*
Y442000D02*
D03*
Y400000D02*
D03*
Y390000D02*
D03*
D48*
X132000Y298000D02*
D03*
Y318000D02*
D03*
X112000D02*
D03*
Y298000D02*
D03*
X122000Y308000D02*
D03*
D49*
X455000Y469551D02*
D03*
D50*
Y454000D02*
D03*
D51*
X339000Y193000D02*
D03*
X349000D02*
D03*
X359000D02*
D03*
X369000D02*
D03*
D52*
X379000D02*
D03*
M02*
