G04*
G04 #@! TF.GenerationSoftware,Altium Limited,Altium Designer,22.1.2 (22)*
G04*
G04 Layer_Color=32768*
%FSLAX25Y25*%
%MOIN*%
G70*
G04*
G04 #@! TF.SameCoordinates,A6313862-7C9A-4C61-A90E-EA9183BEBBA3*
G04*
G04*
G04 #@! TF.FilePolarity,Positive*
G04*
G01*
G75*
%ADD54C,0.00394*%
%ADD55C,0.00197*%
D54*
X171031Y440000D02*
X174969D01*
X173000Y438031D02*
Y441968D01*
X171031Y450000D02*
X174969D01*
X173000Y448032D02*
Y451968D01*
X143032Y360000D02*
X146968D01*
X145000Y358032D02*
Y361968D01*
X171031Y360000D02*
X174969D01*
X173000Y358032D02*
Y361968D01*
X171031Y350000D02*
X174969D01*
X173000Y348031D02*
Y351969D01*
X171031Y340000D02*
X174969D01*
X173000Y338032D02*
Y341968D01*
X144000Y302095D02*
Y306031D01*
X142032Y304063D02*
X145968D01*
X172000Y302095D02*
Y306031D01*
X170031Y304063D02*
X173969D01*
X404032Y371000D02*
X407969D01*
X406000Y369032D02*
Y372969D01*
X423032Y330000D02*
X426968D01*
X425000Y328031D02*
Y331968D01*
X424000Y360032D02*
Y363968D01*
X422031Y362000D02*
X425969D01*
X313032Y380000D02*
X316968D01*
X315000Y378031D02*
Y381968D01*
X313032Y390000D02*
X316968D01*
X315000Y388032D02*
Y391968D01*
X313032Y400000D02*
X316968D01*
X315000Y398031D02*
Y401968D01*
X313032Y410000D02*
X316968D01*
X315000Y408032D02*
Y411969D01*
X317000Y186031D02*
Y189969D01*
X315032Y188000D02*
X318969D01*
X313032Y450000D02*
X316968D01*
X315000Y448032D02*
Y451968D01*
X448032Y296000D02*
X451968D01*
X450000Y294032D02*
Y297969D01*
X406000Y235032D02*
Y238968D01*
X404032Y237000D02*
X407969D01*
X394000Y235032D02*
Y238968D01*
X392032Y237000D02*
X395969D01*
X382858Y235032D02*
Y238968D01*
X380890Y237000D02*
X384827D01*
X375000Y400032D02*
Y403968D01*
X373031Y402000D02*
X376969D01*
X412000Y400032D02*
Y403968D01*
X410032Y402000D02*
X413969D01*
X450000Y400032D02*
Y403968D01*
X448032Y402000D02*
X451968D01*
X156032Y308000D02*
X159968D01*
X158000Y306031D02*
Y309968D01*
X171031Y390000D02*
X174969D01*
X173000Y388032D02*
Y391968D01*
D55*
X179496Y436260D02*
Y443740D01*
X166504Y436260D02*
Y443740D01*
Y436260D02*
X179496D01*
X166504Y443740D02*
X179496D01*
Y446260D02*
Y453740D01*
X166504Y446260D02*
Y453740D01*
Y446260D02*
X179496D01*
X166504Y453740D02*
X179496D01*
X151496Y356260D02*
Y363740D01*
X138504Y356260D02*
Y363740D01*
Y356260D02*
X151496D01*
X138504Y363740D02*
X151496D01*
X179496Y356260D02*
Y363740D01*
X166504Y356260D02*
Y363740D01*
Y356260D02*
X179496D01*
X166504Y363740D02*
X179496D01*
Y346260D02*
Y353740D01*
X166504Y346260D02*
Y353740D01*
Y346260D02*
X179496D01*
X166504Y353740D02*
X179496D01*
Y336260D02*
Y343740D01*
X166504Y336260D02*
Y343740D01*
Y336260D02*
X179496D01*
X166504Y343740D02*
X179496D01*
X140063Y297173D02*
X147937D01*
X140063Y310953D02*
X147937D01*
X140063Y297173D02*
Y310953D01*
X147937Y297173D02*
Y310953D01*
X168063Y297173D02*
X175937D01*
X168063Y310953D02*
X175937D01*
X168063Y297173D02*
Y310953D01*
X175937Y297173D02*
Y310953D01*
X412496Y367260D02*
Y374740D01*
X399504Y367260D02*
Y374740D01*
Y367260D02*
X412496D01*
X399504Y374740D02*
X412496D01*
X455905Y307756D02*
Y352244D01*
X394094Y307756D02*
Y352244D01*
Y307756D02*
X455905D01*
X394094Y352244D02*
X455905D01*
X420260Y355504D02*
X427740D01*
X420260Y368496D02*
X427740D01*
X420260Y355504D02*
Y368496D01*
X427740Y355504D02*
Y368496D01*
X321496Y376260D02*
Y383740D01*
X308504Y376260D02*
Y383740D01*
Y376260D02*
X321496D01*
X308504Y383740D02*
X321496D01*
Y386260D02*
Y393740D01*
X308504Y386260D02*
Y393740D01*
Y386260D02*
X321496D01*
X308504Y393740D02*
X321496D01*
Y396260D02*
Y403740D01*
X308504Y396260D02*
Y403740D01*
Y396260D02*
X321496D01*
X308504Y403740D02*
X321496D01*
Y406260D02*
Y413740D01*
X308504Y406260D02*
Y413740D01*
Y406260D02*
X321496D01*
X308504Y413740D02*
X321496D01*
X312669Y196858D02*
X321331D01*
X312669Y179142D02*
X321331D01*
Y196858D01*
X312669Y179142D02*
Y196858D01*
X321496Y446260D02*
Y453740D01*
X308504Y446260D02*
Y453740D01*
Y446260D02*
X321496D01*
X308504Y453740D02*
X321496D01*
X443504Y292260D02*
Y299740D01*
X456496Y292260D02*
Y299740D01*
X443504D02*
X456496D01*
X443504Y292260D02*
X456496D01*
X401669Y245858D02*
X410331D01*
X401669Y228142D02*
X410331D01*
Y245858D01*
X401669Y228142D02*
Y245858D01*
X389669D02*
X398331D01*
X389669Y228142D02*
X398331D01*
Y245858D01*
X389669Y228142D02*
Y245858D01*
X378528D02*
X387189D01*
X378528Y228142D02*
X387189D01*
Y245858D01*
X378528Y228142D02*
Y245858D01*
X357677Y424047D02*
X392323D01*
X357677Y379953D02*
X392323D01*
Y424047D01*
X357677Y379953D02*
Y424047D01*
X394677D02*
X429323D01*
X394677Y379953D02*
X429323D01*
Y424047D01*
X394677Y379953D02*
Y424047D01*
X432677D02*
X467323D01*
X432677Y379953D02*
X467323D01*
Y424047D01*
X432677Y379953D02*
Y424047D01*
X164496Y304260D02*
Y311740D01*
X151504Y304260D02*
Y311740D01*
Y304260D02*
X164496D01*
X151504Y311740D02*
X164496D01*
X179496Y386260D02*
Y393740D01*
X166504Y386260D02*
Y393740D01*
Y386260D02*
X179496D01*
X166504Y393740D02*
X179496D01*
M02*
