G04*
G04 #@! TF.GenerationSoftware,Altium Limited,Altium Designer,22.1.2 (22)*
G04*
G04 Layer_Color=8388736*
%FSLAX25Y25*%
%MOIN*%
G70*
G04*
G04 #@! TF.SameCoordinates,3B8A755F-3D54-40BF-96AC-408BDBD8EEA0*
G04*
G04*
G04 #@! TF.FilePolarity,Negative*
G04*
G01*
G75*
%ADD15R,0.09055X0.04528*%
%ADD16R,0.04528X0.04331*%
%ADD17R,0.04331X0.05709*%
%ADD18R,0.06693X0.04724*%
%ADD19R,0.07677X0.15354*%
%ADD20R,0.09449X0.09449*%
%ADD21R,0.20894X0.26394*%
%ADD22R,0.06496X0.05709*%
%ADD23R,0.08898X0.03976*%
%ADD24R,0.41378X0.42913*%
%ADD25R,0.05709X0.04331*%
%ADD26C,0.06394*%
%ADD27R,0.10394X0.05394*%
%ADD28O,0.10394X0.05394*%
%ADD29R,0.05315X0.12205*%
%ADD30C,0.10236*%
%ADD31R,0.10236X0.10236*%
%ADD32C,0.05394*%
D15*
X129697Y296807D02*
D03*
Y285193D02*
D03*
D16*
X135700Y291000D02*
D03*
D17*
X453543Y296000D02*
D03*
X446457D02*
D03*
X158282Y291000D02*
D03*
X151195D02*
D03*
X181543D02*
D03*
X174457D02*
D03*
X148543Y360000D02*
D03*
X141457D02*
D03*
X169457Y390000D02*
D03*
X176543D02*
D03*
X169457Y420000D02*
D03*
X176543D02*
D03*
X169457Y450000D02*
D03*
X176543D02*
D03*
Y410000D02*
D03*
X169457D02*
D03*
X176543Y440000D02*
D03*
X169457D02*
D03*
X176543Y360000D02*
D03*
X169457D02*
D03*
X176543Y350000D02*
D03*
X169457D02*
D03*
X176543Y340000D02*
D03*
X169457D02*
D03*
X409543Y371000D02*
D03*
X402457D02*
D03*
X318543Y380000D02*
D03*
X311457D02*
D03*
X318543Y390000D02*
D03*
X311457D02*
D03*
X318543Y400000D02*
D03*
X311457D02*
D03*
X318543Y410000D02*
D03*
X311457D02*
D03*
X318543Y450000D02*
D03*
X311457D02*
D03*
D18*
X317000Y181898D02*
D03*
Y194102D02*
D03*
X406000Y230898D02*
D03*
Y243102D02*
D03*
X382858Y230898D02*
D03*
Y243102D02*
D03*
X394000Y230898D02*
D03*
Y243102D02*
D03*
D19*
X450000Y391272D02*
D03*
Y412728D02*
D03*
X412000Y391272D02*
D03*
Y412728D02*
D03*
X375000Y391272D02*
D03*
Y412728D02*
D03*
D20*
X412000Y442283D02*
D03*
Y460000D02*
D03*
X389000Y459858D02*
D03*
Y442142D02*
D03*
X397000Y290717D02*
D03*
Y273000D02*
D03*
D21*
X444000Y265000D02*
D03*
Y216400D02*
D03*
D22*
X143000Y298874D02*
D03*
Y291000D02*
D03*
X166369Y298874D02*
D03*
Y291000D02*
D03*
D23*
X449498Y315000D02*
D03*
Y320000D02*
D03*
Y325000D02*
D03*
Y330000D02*
D03*
Y335000D02*
D03*
Y340000D02*
D03*
Y345000D02*
D03*
D24*
X412766Y330000D02*
D03*
D25*
X424000Y358457D02*
D03*
Y365543D02*
D03*
D26*
X379000Y193000D02*
D03*
X369000D02*
D03*
X339000D02*
D03*
X329000D02*
D03*
X349000D02*
D03*
X359000D02*
D03*
X121000Y432000D02*
D03*
Y452000D02*
D03*
Y442000D02*
D03*
Y390000D02*
D03*
Y410000D02*
D03*
Y400000D02*
D03*
D27*
X197000Y470000D02*
D03*
Y460000D02*
D03*
Y430000D02*
D03*
Y400000D02*
D03*
Y380000D02*
D03*
Y330000D02*
D03*
X287000Y470000D02*
D03*
Y420000D02*
D03*
Y370000D02*
D03*
Y330000D02*
D03*
D28*
X197000Y450000D02*
D03*
Y440000D02*
D03*
Y420000D02*
D03*
Y410000D02*
D03*
Y390000D02*
D03*
Y370000D02*
D03*
Y360000D02*
D03*
Y350000D02*
D03*
Y340000D02*
D03*
X287000Y460000D02*
D03*
Y450000D02*
D03*
Y440000D02*
D03*
Y430000D02*
D03*
Y410000D02*
D03*
Y400000D02*
D03*
Y390000D02*
D03*
Y380000D02*
D03*
Y360000D02*
D03*
Y350000D02*
D03*
Y340000D02*
D03*
D29*
X176197Y279000D02*
D03*
X196197D02*
D03*
X186197D02*
D03*
X226000D02*
D03*
X236000D02*
D03*
X246000D02*
D03*
X256000D02*
D03*
X266000D02*
D03*
X276000D02*
D03*
X286000D02*
D03*
X296000D02*
D03*
X196197Y184512D02*
D03*
X186197D02*
D03*
X176197D02*
D03*
X226000D02*
D03*
X236000D02*
D03*
X246000D02*
D03*
X256000D02*
D03*
X266000D02*
D03*
X276000D02*
D03*
X286000D02*
D03*
X296000D02*
D03*
D30*
X455000Y454000D02*
D03*
D31*
Y469551D02*
D03*
D32*
X159000Y274000D02*
D03*
X118000Y288000D02*
D03*
Y281000D02*
D03*
X132000Y274000D02*
D03*
X125000D02*
D03*
X118000D02*
D03*
X154000Y330000D02*
D03*
X147000D02*
D03*
X139000D02*
D03*
X131000D02*
D03*
X123000D02*
D03*
X450000Y480000D02*
D03*
Y440000D02*
D03*
Y380000D02*
D03*
Y360000D02*
D03*
Y240000D02*
D03*
X440000Y480000D02*
D03*
Y440000D02*
D03*
Y420000D02*
D03*
Y400000D02*
D03*
Y380000D02*
D03*
Y360000D02*
D03*
Y340000D02*
D03*
Y240000D02*
D03*
X430000Y460000D02*
D03*
X435000Y450000D02*
D03*
X430000Y440000D02*
D03*
Y420000D02*
D03*
X435000Y410000D02*
D03*
X430000Y400000D02*
D03*
X435000Y390000D02*
D03*
X430000Y380000D02*
D03*
Y300000D02*
D03*
X435000Y290000D02*
D03*
X430000Y260000D02*
D03*
Y240000D02*
D03*
X420000Y480000D02*
D03*
X425000Y450000D02*
D03*
X420000Y420000D02*
D03*
X425000Y410000D02*
D03*
X420000Y400000D02*
D03*
X425000Y390000D02*
D03*
X420000Y380000D02*
D03*
Y300000D02*
D03*
X425000Y290000D02*
D03*
Y270000D02*
D03*
X420000Y260000D02*
D03*
X425000Y250000D02*
D03*
X420000Y240000D02*
D03*
X410000Y480000D02*
D03*
Y380000D02*
D03*
Y360000D02*
D03*
Y300000D02*
D03*
X415000Y290000D02*
D03*
Y270000D02*
D03*
X410000Y260000D02*
D03*
X415000Y250000D02*
D03*
X400000Y480000D02*
D03*
X405000Y470000D02*
D03*
X400000Y460000D02*
D03*
X405000Y450000D02*
D03*
X400000Y440000D02*
D03*
Y420000D02*
D03*
Y400000D02*
D03*
Y380000D02*
D03*
Y360000D02*
D03*
Y300000D02*
D03*
Y260000D02*
D03*
X405000Y250000D02*
D03*
X395000Y470000D02*
D03*
X390000Y420000D02*
D03*
X395000Y410000D02*
D03*
X390000Y400000D02*
D03*
X395000Y390000D02*
D03*
X390000Y380000D02*
D03*
Y360000D02*
D03*
Y300000D02*
D03*
Y260000D02*
D03*
X395000Y250000D02*
D03*
X380000Y480000D02*
D03*
Y460000D02*
D03*
Y440000D02*
D03*
X385000Y410000D02*
D03*
Y390000D02*
D03*
X380000Y380000D02*
D03*
Y360000D02*
D03*
X385000Y350000D02*
D03*
X380000Y340000D02*
D03*
X385000Y330000D02*
D03*
X380000Y320000D02*
D03*
X385000Y310000D02*
D03*
X380000Y300000D02*
D03*
X385000Y290000D02*
D03*
X380000Y280000D02*
D03*
X385000Y270000D02*
D03*
X380000Y260000D02*
D03*
X385000Y250000D02*
D03*
X370000Y480000D02*
D03*
X375000Y470000D02*
D03*
X370000Y460000D02*
D03*
X375000Y450000D02*
D03*
X370000Y440000D02*
D03*
Y380000D02*
D03*
Y360000D02*
D03*
X375000Y350000D02*
D03*
X370000Y340000D02*
D03*
X375000Y330000D02*
D03*
X370000Y320000D02*
D03*
X375000Y310000D02*
D03*
Y290000D02*
D03*
Y270000D02*
D03*
Y250000D02*
D03*
X360000Y480000D02*
D03*
X365000Y470000D02*
D03*
X360000Y460000D02*
D03*
X365000Y450000D02*
D03*
X360000Y440000D02*
D03*
X365000Y430000D02*
D03*
X360000Y420000D02*
D03*
X365000Y410000D02*
D03*
X360000Y400000D02*
D03*
X365000Y390000D02*
D03*
X360000Y380000D02*
D03*
Y360000D02*
D03*
X365000Y350000D02*
D03*
X360000Y340000D02*
D03*
X365000Y330000D02*
D03*
X360000Y320000D02*
D03*
X365000Y310000D02*
D03*
X360000Y280000D02*
D03*
Y260000D02*
D03*
Y240000D02*
D03*
X329000Y410000D02*
D03*
X368000Y371000D02*
D03*
X390000D02*
D03*
X333000Y304000D02*
D03*
X281000Y319000D02*
D03*
X248000Y377000D02*
D03*
X329000Y380000D02*
D03*
Y400000D02*
D03*
X158000Y350000D02*
D03*
M02*
