G04*
G04 #@! TF.GenerationSoftware,Altium Limited,Altium Designer,22.1.2 (22)*
G04*
G04 Layer_Color=8388736*
%FSLAX25Y25*%
%MOIN*%
G70*
G04*
G04 #@! TF.SameCoordinates,DDE4A02C-EC50-4DC0-B3EF-D35DCD8E266D*
G04*
G04*
G04 #@! TF.FilePolarity,Negative*
G04*
G01*
G75*
%ADD13R,0.04737X0.06115*%
%ADD14R,0.06902X0.06115*%
%ADD15R,0.09304X0.04383*%
%ADD16R,0.41784X0.43320*%
%ADD17R,0.06115X0.04737*%
%ADD18R,0.21300X0.26800*%
%ADD19R,0.07099X0.05131*%
%ADD20R,0.09855X0.09855*%
%ADD21R,0.08083X0.15761*%
%ADD22R,0.05721X0.12611*%
%ADD23R,0.10800X0.05800*%
%ADD24O,0.10800X0.05800*%
%ADD25R,0.09800X0.07800*%
%ADD26O,0.09800X0.07800*%
%ADD27C,0.09855*%
%ADD28R,0.10642X0.10642*%
%ADD29C,0.10642*%
%ADD30O,0.07800X0.09800*%
%ADD31R,0.07800X0.09800*%
%ADD32C,0.05800*%
D13*
X176543Y440000D02*
D03*
X169457D02*
D03*
X176543Y450000D02*
D03*
X169457D02*
D03*
X148543Y360000D02*
D03*
X141457D02*
D03*
X176543D02*
D03*
X169457D02*
D03*
X176543Y350000D02*
D03*
X169457D02*
D03*
X176543Y340000D02*
D03*
X169457D02*
D03*
X409543Y371000D02*
D03*
X402457D02*
D03*
X318543Y380000D02*
D03*
X311457D02*
D03*
X318543Y390000D02*
D03*
X311457D02*
D03*
X318543Y400000D02*
D03*
X311457D02*
D03*
X318543Y410000D02*
D03*
X311457D02*
D03*
X318543Y450000D02*
D03*
X311457D02*
D03*
X446457Y296000D02*
D03*
X453543D02*
D03*
X161543Y308000D02*
D03*
X154457D02*
D03*
X176543Y390000D02*
D03*
X169457D02*
D03*
D14*
X144000Y300126D02*
D03*
Y308000D02*
D03*
X172000Y300126D02*
D03*
Y308000D02*
D03*
D15*
X449498Y315000D02*
D03*
Y320000D02*
D03*
Y325000D02*
D03*
Y330000D02*
D03*
Y335000D02*
D03*
Y340000D02*
D03*
Y345000D02*
D03*
D16*
X412766Y330000D02*
D03*
D17*
X424000Y358457D02*
D03*
Y365543D02*
D03*
D18*
X444000Y216400D02*
D03*
Y265000D02*
D03*
D19*
X317000Y194102D02*
D03*
Y181898D02*
D03*
X406000Y243102D02*
D03*
Y230898D02*
D03*
X394000Y243102D02*
D03*
Y230898D02*
D03*
X382858Y243102D02*
D03*
Y230898D02*
D03*
D20*
X412000Y451142D02*
D03*
Y468858D02*
D03*
X397000Y281858D02*
D03*
Y264142D02*
D03*
X389000Y451000D02*
D03*
Y468716D02*
D03*
D21*
X375000Y412728D02*
D03*
Y391272D02*
D03*
X412000Y412728D02*
D03*
Y391272D02*
D03*
X450000Y412728D02*
D03*
Y391272D02*
D03*
D22*
X176197Y279000D02*
D03*
X196197D02*
D03*
X186197D02*
D03*
X226000D02*
D03*
X236000D02*
D03*
X246000D02*
D03*
X256000D02*
D03*
X266000D02*
D03*
X276000D02*
D03*
X286000D02*
D03*
X296000D02*
D03*
X196197Y184512D02*
D03*
X186197D02*
D03*
X176197D02*
D03*
X226000D02*
D03*
X236000D02*
D03*
X246000D02*
D03*
X256000D02*
D03*
X266000D02*
D03*
X276000D02*
D03*
X286000D02*
D03*
X296000D02*
D03*
D23*
X197000Y470000D02*
D03*
Y460000D02*
D03*
Y430000D02*
D03*
Y400000D02*
D03*
Y380000D02*
D03*
Y330000D02*
D03*
X287000Y470000D02*
D03*
Y420000D02*
D03*
Y370000D02*
D03*
Y330000D02*
D03*
D24*
X197000Y450000D02*
D03*
Y440000D02*
D03*
Y420000D02*
D03*
Y410000D02*
D03*
Y390000D02*
D03*
Y370000D02*
D03*
Y360000D02*
D03*
Y350000D02*
D03*
Y340000D02*
D03*
X287000Y460000D02*
D03*
Y450000D02*
D03*
Y440000D02*
D03*
Y430000D02*
D03*
Y410000D02*
D03*
Y400000D02*
D03*
Y390000D02*
D03*
Y380000D02*
D03*
Y360000D02*
D03*
Y350000D02*
D03*
Y340000D02*
D03*
D25*
X120000Y422000D02*
D03*
Y380000D02*
D03*
D26*
Y432000D02*
D03*
Y442000D02*
D03*
Y400000D02*
D03*
Y390000D02*
D03*
D27*
X132000Y298000D02*
D03*
Y318000D02*
D03*
X112000D02*
D03*
Y298000D02*
D03*
X122000Y308000D02*
D03*
D28*
X455000Y469551D02*
D03*
D29*
Y454000D02*
D03*
D30*
X339000Y193000D02*
D03*
X349000D02*
D03*
X359000D02*
D03*
X369000D02*
D03*
D31*
X379000D02*
D03*
D32*
X329000Y410000D02*
D03*
X368000Y371000D02*
D03*
X390000D02*
D03*
X377000Y316000D02*
D03*
X367000D02*
D03*
Y326000D02*
D03*
X377000D02*
D03*
Y336000D02*
D03*
X367000D02*
D03*
X377000Y346000D02*
D03*
X367000D02*
D03*
X377000Y356000D02*
D03*
X367000D02*
D03*
X333000Y304000D02*
D03*
X281000Y319000D02*
D03*
X248000Y377000D02*
D03*
X329000Y380000D02*
D03*
Y400000D02*
D03*
X158000Y350000D02*
D03*
M02*
