G04*
G04 #@! TF.GenerationSoftware,Altium Limited,Altium Designer,22.1.2 (22)*
G04*
G04 Layer_Physical_Order=1*
G04 Layer_Color=255*
%FSLAX25Y25*%
%MOIN*%
G70*
G04*
G04 #@! TF.SameCoordinates,ACF9E84F-248F-408C-B087-6DC18E25A492*
G04*
G04*
G04 #@! TF.FilePolarity,Positive*
G04*
G01*
G75*
%ADD11C,0.01000*%
%ADD33R,0.04921X0.11811*%
%ADD34R,0.03937X0.05315*%
%ADD35R,0.10039X0.10906*%
%ADD36R,0.08661X0.04134*%
%ADD37R,0.04134X0.03937*%
%ADD38R,0.06299X0.04331*%
%ADD39R,0.09055X0.09055*%
%ADD40R,0.20500X0.26000*%
%ADD41R,0.06102X0.05315*%
%ADD42R,0.08504X0.03583*%
%ADD43R,0.40984X0.42520*%
%ADD44R,0.05315X0.03937*%
%ADD45C,0.02000*%
%ADD46C,0.01500*%
%ADD47C,0.03000*%
%ADD48C,0.01375*%
%ADD49C,0.06000*%
%ADD50R,0.10000X0.05000*%
%ADD51O,0.10000X0.05000*%
%ADD52C,0.09843*%
%ADD53R,0.09843X0.09843*%
%ADD54C,0.05000*%
G36*
X465000Y486000D02*
Y430363D01*
X464559Y430127D01*
X464218Y430355D01*
X463243Y430549D01*
X414549D01*
Y436756D01*
X417528D01*
Y447811D01*
X408355D01*
X408066Y448311D01*
X408261Y448649D01*
X408490Y449500D01*
X405500D01*
Y446511D01*
X405972Y446637D01*
X406472Y446253D01*
Y436756D01*
X409451D01*
Y430549D01*
X391549D01*
Y436614D01*
X394528D01*
Y447669D01*
X383472D01*
Y441986D01*
X382972Y441852D01*
X382801Y442149D01*
X382149Y442801D01*
X381351Y443261D01*
X380500Y443490D01*
Y440000D01*
Y436511D01*
X381351Y436738D01*
X382149Y437199D01*
X382801Y437851D01*
X382972Y438148D01*
X383472Y438014D01*
Y436614D01*
X386451D01*
Y430549D01*
X377343D01*
X376368Y430355D01*
X375541Y429802D01*
X373198Y427459D01*
X372645Y426632D01*
X372451Y425657D01*
Y422130D01*
X368980D01*
Y409224D01*
X381020D01*
Y422130D01*
X377549D01*
Y424601D01*
X378399Y425451D01*
X409451D01*
Y421130D01*
X405980D01*
Y408224D01*
X418020D01*
Y421130D01*
X414549D01*
Y425451D01*
X445944D01*
X447451Y423944D01*
Y421130D01*
X443980D01*
Y420600D01*
X443480Y420534D01*
X443261Y421351D01*
X442801Y422149D01*
X442149Y422801D01*
X441351Y423261D01*
X440500Y423490D01*
Y420000D01*
Y416510D01*
X441351Y416739D01*
X442149Y417199D01*
X442801Y417851D01*
X443261Y418649D01*
X443480Y419466D01*
X443980Y419400D01*
Y408224D01*
X456020D01*
Y421130D01*
X452549D01*
Y425000D01*
X452536Y425065D01*
X452853Y425451D01*
X462187D01*
X462451Y425187D01*
Y322813D01*
X462187Y322549D01*
X454750D01*
Y327209D01*
Y329500D01*
X449498D01*
Y330500D01*
X454750D01*
Y332209D01*
Y337451D01*
X457243D01*
X458218Y337645D01*
X459045Y338198D01*
X460802Y339955D01*
X461355Y340782D01*
X461549Y341757D01*
Y368000D01*
X461355Y368975D01*
X460802Y369802D01*
X457802Y372802D01*
X456976Y373355D01*
X456000Y373549D01*
X412512D01*
Y374658D01*
X406575D01*
Y367342D01*
X412512D01*
Y368451D01*
X420342D01*
Y362575D01*
X427658D01*
Y368451D01*
X454944D01*
X456451Y366944D01*
Y342813D01*
X456187Y342549D01*
X454750D01*
Y347791D01*
X444246D01*
Y342209D01*
Y337209D01*
Y332549D01*
X434258D01*
Y352260D01*
X426549D01*
Y355488D01*
X427658D01*
Y357957D01*
X424000D01*
X420342D01*
Y355488D01*
X421451D01*
Y352260D01*
X413266D01*
Y330000D01*
Y307740D01*
X434258D01*
Y327451D01*
X439268D01*
X439420Y326951D01*
X439198Y326802D01*
X437198Y324802D01*
X436645Y323975D01*
X436451Y323000D01*
Y299000D01*
X436645Y298025D01*
X437198Y297198D01*
X439040Y295355D01*
X439867Y294802D01*
X440842Y294608D01*
X443488D01*
Y292342D01*
X449425D01*
Y299658D01*
X446234D01*
X445988Y299707D01*
X441898D01*
X441549Y300056D01*
Y321944D01*
X442056Y322451D01*
X444246D01*
Y317209D01*
Y312209D01*
X454750D01*
Y312451D01*
X456944D01*
X458451Y310944D01*
Y298549D01*
X456512D01*
Y299658D01*
X450575D01*
Y292342D01*
X456512D01*
Y293451D01*
X458451D01*
Y285806D01*
X457194Y284549D01*
X400399D01*
X400306Y284689D01*
X400573Y285189D01*
X402528D01*
Y296244D01*
X401438D01*
X401351Y296739D01*
X402149Y297199D01*
X402801Y297851D01*
X403262Y298649D01*
X403489Y299500D01*
X396511D01*
X396739Y298649D01*
X397199Y297851D01*
X397851Y297199D01*
X398649Y296739D01*
X398562Y296244D01*
X391472D01*
Y285189D01*
X394593D01*
Y283858D01*
X394787Y282883D01*
X395339Y282056D01*
X397198Y280198D01*
X398025Y279645D01*
X399000Y279451D01*
X432632D01*
X432750Y279000D01*
X432750D01*
Y262853D01*
X432288Y262662D01*
X432149Y262801D01*
X431351Y263262D01*
X430500Y263490D01*
Y260000D01*
Y256510D01*
X431351Y256738D01*
X432149Y257199D01*
X432288Y257338D01*
X432750Y257147D01*
Y251000D01*
X455250D01*
Y273504D01*
X455299Y273750D01*
X455250Y273996D01*
Y279000D01*
X455250D01*
X455368Y279451D01*
X458250D01*
X459226Y279645D01*
X460052Y280198D01*
X462802Y282948D01*
X463355Y283774D01*
X463549Y284750D01*
Y296000D01*
Y312000D01*
X463355Y312976D01*
X462802Y313802D01*
X459802Y316802D01*
X459580Y316951D01*
X459732Y317451D01*
X463243D01*
X464218Y317645D01*
X464559Y317873D01*
X465000Y317637D01*
Y233266D01*
X459678Y227944D01*
X455250Y227946D01*
Y230400D01*
X432750D01*
Y228312D01*
X432396Y227958D01*
X410150Y227971D01*
Y234063D01*
X401850D01*
Y228329D01*
X401497Y227975D01*
X398150Y227977D01*
Y234063D01*
X389850D01*
Y228335D01*
X389497Y227982D01*
X387008Y227983D01*
Y234063D01*
X378709D01*
Y228341D01*
X378355Y227988D01*
X363893Y227996D01*
X356549Y235339D01*
Y237977D01*
X357049Y238111D01*
X357199Y237851D01*
X357851Y237199D01*
X358649Y236738D01*
X359500Y236510D01*
Y240000D01*
Y243490D01*
X358649Y243262D01*
X357851Y242801D01*
X357199Y242149D01*
X357049Y241889D01*
X356549Y242023D01*
Y257977D01*
X357049Y258111D01*
X357199Y257851D01*
X357851Y257199D01*
X358649Y256738D01*
X359500Y256510D01*
Y260000D01*
Y263490D01*
X358649Y263262D01*
X357851Y262801D01*
X357199Y262149D01*
X357049Y261889D01*
X356549Y262023D01*
Y277977D01*
X357049Y278111D01*
X357199Y277851D01*
X357851Y277199D01*
X358649Y276739D01*
X359500Y276511D01*
Y280000D01*
Y283489D01*
X358649Y283261D01*
X357851Y282801D01*
X357199Y282149D01*
X357049Y281889D01*
X356549Y282023D01*
Y317977D01*
X357049Y318111D01*
X357199Y317851D01*
X357851Y317199D01*
X358649Y316739D01*
X359500Y316511D01*
Y320000D01*
Y323489D01*
X358649Y323261D01*
X357851Y322801D01*
X357199Y322149D01*
X357049Y321889D01*
X356549Y322023D01*
Y337977D01*
X357049Y338111D01*
X357199Y337851D01*
X357851Y337199D01*
X358649Y336738D01*
X359500Y336510D01*
Y340000D01*
Y343490D01*
X358649Y343262D01*
X357851Y342801D01*
X357199Y342149D01*
X357049Y341889D01*
X356549Y342023D01*
Y357977D01*
X357049Y358111D01*
X357199Y357851D01*
X357851Y357199D01*
X358649Y356738D01*
X359500Y356510D01*
Y360000D01*
Y363490D01*
X358649Y363262D01*
X357851Y362801D01*
X357199Y362149D01*
X357049Y361889D01*
X356549Y362023D01*
Y368451D01*
X365599D01*
X365851Y368199D01*
X366649Y367739D01*
X367539Y367500D01*
X368461D01*
X369351Y367739D01*
X370149Y368199D01*
X370801Y368851D01*
X371262Y369649D01*
X371500Y370539D01*
Y371461D01*
X371262Y372351D01*
X370801Y373149D01*
X370149Y373801D01*
X369351Y374261D01*
X368461Y374500D01*
X367539D01*
X366649Y374261D01*
X365851Y373801D01*
X365599Y373549D01*
X356549D01*
Y377977D01*
X357049Y378111D01*
X357199Y377851D01*
X357851Y377199D01*
X358649Y376739D01*
X359500Y376511D01*
Y380000D01*
Y383489D01*
X358649Y383261D01*
X357851Y382801D01*
X357199Y382149D01*
X357049Y381889D01*
X356549Y382023D01*
Y397977D01*
X357049Y398111D01*
X357199Y397851D01*
X357851Y397199D01*
X358649Y396739D01*
X359500Y396511D01*
Y400000D01*
Y403489D01*
X358649Y403262D01*
X357851Y402801D01*
X357199Y402149D01*
X357049Y401889D01*
X356549Y402023D01*
Y417977D01*
X357049Y418111D01*
X357199Y417851D01*
X357851Y417199D01*
X358649Y416739D01*
X359500Y416510D01*
Y420000D01*
Y423490D01*
X358649Y423261D01*
X357851Y422801D01*
X357199Y422149D01*
X357049Y421889D01*
X356549Y422023D01*
Y432000D01*
X356355Y432975D01*
X356000Y433507D01*
Y485000D01*
X360972Y489972D01*
X461028D01*
X465000Y486000D01*
D02*
G37*
G36*
X205000Y333000D02*
Y306537D01*
X204538Y306346D01*
X182442Y328442D01*
X181780Y328884D01*
X181000Y329039D01*
X164845D01*
X163039Y330845D01*
Y335000D01*
X203000D01*
X205000Y333000D01*
D02*
G37*
G36*
X158961Y330000D02*
X159116Y329220D01*
X159558Y328558D01*
X162558Y325558D01*
X163220Y325116D01*
X164000Y324961D01*
X180155D01*
X205000Y300116D01*
Y270000D01*
X204000Y269000D01*
X111000D01*
X110000Y270000D01*
Y334000D01*
X111000Y335000D01*
X158961D01*
Y330000D01*
D02*
G37*
%LPC*%
G36*
X450500Y483490D02*
Y480500D01*
X453489D01*
X453262Y481351D01*
X452801Y482149D01*
X452149Y482801D01*
X451351Y483261D01*
X450500Y483490D01*
D02*
G37*
G36*
X449500D02*
X448649Y483261D01*
X447851Y482801D01*
X447199Y482149D01*
X446738Y481351D01*
X446511Y480500D01*
X449500D01*
Y483490D01*
D02*
G37*
G36*
X440500D02*
Y480500D01*
X443490D01*
X443261Y481351D01*
X442801Y482149D01*
X442149Y482801D01*
X441351Y483261D01*
X440500Y483490D01*
D02*
G37*
G36*
X439500D02*
X438649Y483261D01*
X437851Y482801D01*
X437199Y482149D01*
X436738Y481351D01*
X436511Y480500D01*
X439500D01*
Y483490D01*
D02*
G37*
G36*
X380500D02*
Y480500D01*
X383489D01*
X383261Y481351D01*
X382801Y482149D01*
X382149Y482801D01*
X381351Y483261D01*
X380500Y483490D01*
D02*
G37*
G36*
X379500D02*
X378649Y483261D01*
X377851Y482801D01*
X377199Y482149D01*
X376739Y481351D01*
X376511Y480500D01*
X379500D01*
Y483490D01*
D02*
G37*
G36*
X370500D02*
Y480500D01*
X373489D01*
X373261Y481351D01*
X372801Y482149D01*
X372149Y482801D01*
X371351Y483261D01*
X370500Y483490D01*
D02*
G37*
G36*
X369500D02*
X368649Y483261D01*
X367851Y482801D01*
X367199Y482149D01*
X366739Y481351D01*
X366511Y480500D01*
X369500D01*
Y483490D01*
D02*
G37*
G36*
X360500D02*
Y480500D01*
X363490D01*
X363262Y481351D01*
X362801Y482149D01*
X362149Y482801D01*
X361351Y483261D01*
X360500Y483490D01*
D02*
G37*
G36*
X359500D02*
X358649Y483261D01*
X357851Y482801D01*
X357199Y482149D01*
X356738Y481351D01*
X356510Y480500D01*
X359500D01*
Y483490D01*
D02*
G37*
G36*
X453489Y479500D02*
X450500D01*
Y476510D01*
X451351Y476739D01*
X452149Y477199D01*
X452801Y477851D01*
X453262Y478649D01*
X453489Y479500D01*
D02*
G37*
G36*
X449500D02*
X446511D01*
X446738Y478649D01*
X447199Y477851D01*
X447851Y477199D01*
X448649Y476739D01*
X449500Y476510D01*
Y479500D01*
D02*
G37*
G36*
X443490D02*
X440500D01*
Y476510D01*
X441351Y476739D01*
X442149Y477199D01*
X442801Y477851D01*
X443261Y478649D01*
X443490Y479500D01*
D02*
G37*
G36*
X439500D02*
X436511D01*
X436738Y478649D01*
X437199Y477851D01*
X437851Y477199D01*
X438649Y476739D01*
X439500Y476510D01*
Y479500D01*
D02*
G37*
G36*
X423490D02*
X420500D01*
Y476510D01*
X421351Y476739D01*
X422149Y477199D01*
X422801Y477851D01*
X423261Y478649D01*
X423490Y479500D01*
D02*
G37*
G36*
X419500D02*
X416510D01*
X416739Y478649D01*
X417199Y477851D01*
X417851Y477199D01*
X418649Y476739D01*
X419500Y476510D01*
Y479500D01*
D02*
G37*
G36*
X413489D02*
X410500D01*
Y476510D01*
X411351Y476739D01*
X412149Y477199D01*
X412801Y477851D01*
X413262Y478649D01*
X413489Y479500D01*
D02*
G37*
G36*
X409500D02*
X406510D01*
X406739Y478649D01*
X407199Y477851D01*
X407851Y477199D01*
X408649Y476739D01*
X409500Y476510D01*
Y479500D01*
D02*
G37*
G36*
X403489D02*
X400500D01*
Y476510D01*
X401351Y476739D01*
X402149Y477199D01*
X402801Y477851D01*
X403262Y478649D01*
X403489Y479500D01*
D02*
G37*
G36*
X399500D02*
X396511D01*
X396739Y478649D01*
X397199Y477851D01*
X397851Y477199D01*
X398649Y476739D01*
X399500Y476510D01*
Y479500D01*
D02*
G37*
G36*
X383489D02*
X380500D01*
Y476510D01*
X381351Y476739D01*
X382149Y477199D01*
X382801Y477851D01*
X383261Y478649D01*
X383489Y479500D01*
D02*
G37*
G36*
X379500D02*
X376511D01*
X376739Y478649D01*
X377199Y477851D01*
X377851Y477199D01*
X378649Y476739D01*
X379500Y476510D01*
Y479500D01*
D02*
G37*
G36*
X373489D02*
X370500D01*
Y476510D01*
X371351Y476739D01*
X372149Y477199D01*
X372801Y477851D01*
X373261Y478649D01*
X373489Y479500D01*
D02*
G37*
G36*
X369500D02*
X366511D01*
X366739Y478649D01*
X367199Y477851D01*
X367851Y477199D01*
X368649Y476739D01*
X369500Y476510D01*
Y479500D01*
D02*
G37*
G36*
X363490D02*
X360500D01*
Y476510D01*
X361351Y476739D01*
X362149Y477199D01*
X362801Y477851D01*
X363262Y478649D01*
X363490Y479500D01*
D02*
G37*
G36*
X359500D02*
X356510D01*
X356738Y478649D01*
X357199Y477851D01*
X357851Y477199D01*
X358649Y476739D01*
X359500Y476510D01*
Y479500D01*
D02*
G37*
G36*
X405500Y473490D02*
Y470500D01*
X408490D01*
X408261Y471351D01*
X407801Y472149D01*
X407149Y472801D01*
X406351Y473261D01*
X405500Y473490D01*
D02*
G37*
G36*
X404500D02*
X403649Y473261D01*
X402851Y472801D01*
X402199Y472149D01*
X401739Y471351D01*
X401510Y470500D01*
X404500D01*
Y473490D01*
D02*
G37*
G36*
X395500D02*
Y470500D01*
X398489D01*
X398261Y471351D01*
X397801Y472149D01*
X397149Y472801D01*
X396351Y473261D01*
X395500Y473490D01*
D02*
G37*
G36*
X375500D02*
Y470500D01*
X378489D01*
X378261Y471351D01*
X377801Y472149D01*
X377149Y472801D01*
X376351Y473261D01*
X375500Y473490D01*
D02*
G37*
G36*
X374500D02*
X373649Y473261D01*
X372851Y472801D01*
X372199Y472149D01*
X371739Y471351D01*
X371511Y470500D01*
X374500D01*
Y473490D01*
D02*
G37*
G36*
X365500D02*
Y470500D01*
X368490D01*
X368262Y471351D01*
X367801Y472149D01*
X367149Y472801D01*
X366351Y473261D01*
X365500Y473490D01*
D02*
G37*
G36*
X364500D02*
X363649Y473261D01*
X362851Y472801D01*
X362199Y472149D01*
X361738Y471351D01*
X361510Y470500D01*
X364500D01*
Y473490D01*
D02*
G37*
G36*
X460921Y475472D02*
X455500D01*
Y470051D01*
X460921D01*
Y475472D01*
D02*
G37*
G36*
X408490Y469500D02*
X405500D01*
Y466510D01*
X406351Y466739D01*
X407149Y467199D01*
X407801Y467851D01*
X408261Y468649D01*
X408490Y469500D01*
D02*
G37*
G36*
X404500D02*
X401510D01*
X401739Y468649D01*
X402199Y467851D01*
X402851Y467199D01*
X403649Y466739D01*
X404500Y466510D01*
Y469500D01*
D02*
G37*
G36*
X398489D02*
X395500D01*
Y466510D01*
X396351Y466739D01*
X397149Y467199D01*
X397801Y467851D01*
X398261Y468649D01*
X398489Y469500D01*
D02*
G37*
G36*
X378489D02*
X375500D01*
Y466510D01*
X376351Y466739D01*
X377149Y467199D01*
X377801Y467851D01*
X378261Y468649D01*
X378489Y469500D01*
D02*
G37*
G36*
X374500D02*
X371511D01*
X371739Y468649D01*
X372199Y467851D01*
X372851Y467199D01*
X373649Y466739D01*
X374500Y466510D01*
Y469500D01*
D02*
G37*
G36*
X368490D02*
X365500D01*
Y466510D01*
X366351Y466739D01*
X367149Y467199D01*
X367801Y467851D01*
X368262Y468649D01*
X368490Y469500D01*
D02*
G37*
G36*
X364500D02*
X361510D01*
X361738Y468649D01*
X362199Y467851D01*
X362851Y467199D01*
X363649Y466739D01*
X364500Y466510D01*
Y469500D01*
D02*
G37*
G36*
X460921Y469051D02*
X455500D01*
Y463630D01*
X460921D01*
Y469051D01*
D02*
G37*
G36*
X424000Y488549D02*
X395000D01*
X394024Y488355D01*
X393198Y487802D01*
X387198Y481802D01*
X386645Y480975D01*
X386451Y480000D01*
Y465386D01*
X383472D01*
Y461986D01*
X382972Y461852D01*
X382801Y462149D01*
X382149Y462801D01*
X381351Y463262D01*
X380500Y463489D01*
Y460000D01*
Y456510D01*
X381351Y456739D01*
X382149Y457199D01*
X382801Y457851D01*
X382972Y458148D01*
X383472Y458014D01*
Y454331D01*
X388500D01*
Y459858D01*
X389000D01*
Y460358D01*
X394528D01*
Y465386D01*
X391549D01*
Y467977D01*
X392049Y468111D01*
X392199Y467851D01*
X392851Y467199D01*
X393649Y466739D01*
X394500Y466510D01*
Y470000D01*
Y473490D01*
X393649Y473261D01*
X392851Y472801D01*
X392199Y472149D01*
X392049Y471889D01*
X391549Y472023D01*
Y478944D01*
X396056Y483451D01*
X397977D01*
X398111Y482951D01*
X397851Y482801D01*
X397199Y482149D01*
X396739Y481351D01*
X396511Y480500D01*
X403489D01*
X403262Y481351D01*
X402801Y482149D01*
X402149Y482801D01*
X401889Y482951D01*
X402023Y483451D01*
X407977D01*
X408111Y482951D01*
X407851Y482801D01*
X407199Y482149D01*
X406739Y481351D01*
X406510Y480500D01*
X413489D01*
X413262Y481351D01*
X412801Y482149D01*
X412149Y482801D01*
X411889Y482951D01*
X412023Y483451D01*
X417977D01*
X418111Y482951D01*
X417851Y482801D01*
X417199Y482149D01*
X416739Y481351D01*
X416510Y480500D01*
X423490D01*
X423261Y481351D01*
X422801Y482149D01*
X422149Y482801D01*
X421889Y482951D01*
X422023Y483451D01*
X422944D01*
X438646Y467749D01*
X439473Y467196D01*
X440449Y467002D01*
X449079D01*
Y463630D01*
X454500D01*
Y469551D01*
Y475472D01*
X449079D01*
Y472100D01*
X441505D01*
X425802Y487802D01*
X424975Y488355D01*
X424000Y488549D01*
D02*
G37*
G36*
X400500Y463489D02*
Y460500D01*
X403489D01*
X403262Y461351D01*
X402801Y462149D01*
X402149Y462801D01*
X401351Y463262D01*
X400500Y463489D01*
D02*
G37*
G36*
X399500D02*
X398649Y463262D01*
X397851Y462801D01*
X397199Y462149D01*
X396739Y461351D01*
X396511Y460500D01*
X399500D01*
Y463489D01*
D02*
G37*
G36*
X379500D02*
X378649Y463262D01*
X377851Y462801D01*
X377199Y462149D01*
X376739Y461351D01*
X376511Y460500D01*
X379500D01*
Y463489D01*
D02*
G37*
G36*
X370500D02*
Y460500D01*
X373489D01*
X373261Y461351D01*
X372801Y462149D01*
X372149Y462801D01*
X371351Y463262D01*
X370500Y463489D01*
D02*
G37*
G36*
X369500D02*
X368649Y463262D01*
X367851Y462801D01*
X367199Y462149D01*
X366739Y461351D01*
X366511Y460500D01*
X369500D01*
Y463489D01*
D02*
G37*
G36*
X360500D02*
Y460500D01*
X363490D01*
X363262Y461351D01*
X362801Y462149D01*
X362149Y462801D01*
X361351Y463262D01*
X360500Y463489D01*
D02*
G37*
G36*
X359500D02*
X358649Y463262D01*
X357851Y462801D01*
X357199Y462149D01*
X356738Y461351D01*
X356510Y460500D01*
X359500D01*
Y463489D01*
D02*
G37*
G36*
X429500Y459500D02*
X426510D01*
X426739Y458649D01*
X427199Y457851D01*
X427851Y457199D01*
X428649Y456739D01*
X429500Y456510D01*
Y459500D01*
D02*
G37*
G36*
X403489D02*
X400500D01*
Y456510D01*
X401351Y456739D01*
X402149Y457199D01*
X402801Y457851D01*
X403262Y458649D01*
X403489Y459500D01*
D02*
G37*
G36*
X399500D02*
X396511D01*
X396739Y458649D01*
X397199Y457851D01*
X397851Y457199D01*
X398649Y456739D01*
X399500Y456510D01*
Y459500D01*
D02*
G37*
G36*
X379500D02*
X376511D01*
X376739Y458649D01*
X377199Y457851D01*
X377851Y457199D01*
X378649Y456739D01*
X379500Y456510D01*
Y459500D01*
D02*
G37*
G36*
X373489D02*
X370500D01*
Y456510D01*
X371351Y456739D01*
X372149Y457199D01*
X372801Y457851D01*
X373261Y458649D01*
X373489Y459500D01*
D02*
G37*
G36*
X369500D02*
X366511D01*
X366739Y458649D01*
X367199Y457851D01*
X367851Y457199D01*
X368649Y456739D01*
X369500Y456510D01*
Y459500D01*
D02*
G37*
G36*
X363490D02*
X360500D01*
Y456510D01*
X361351Y456739D01*
X362149Y457199D01*
X362801Y457851D01*
X363262Y458649D01*
X363490Y459500D01*
D02*
G37*
G36*
X359500D02*
X356510D01*
X356738Y458649D01*
X357199Y457851D01*
X357851Y457199D01*
X358649Y456739D01*
X359500Y456510D01*
Y459500D01*
D02*
G37*
G36*
X394528Y459358D02*
X389500D01*
Y454331D01*
X394528D01*
Y459358D01*
D02*
G37*
G36*
X435500Y453489D02*
Y450500D01*
X438489D01*
X438262Y451351D01*
X437801Y452149D01*
X437149Y452801D01*
X436351Y453262D01*
X435500Y453489D01*
D02*
G37*
G36*
X434500D02*
X433649Y453262D01*
X432851Y452801D01*
X432199Y452149D01*
X431739Y451351D01*
X431510Y450500D01*
X434500D01*
Y453489D01*
D02*
G37*
G36*
X425500D02*
Y450500D01*
X428489D01*
X428262Y451351D01*
X427801Y452149D01*
X427149Y452801D01*
X426351Y453262D01*
X425500Y453489D01*
D02*
G37*
G36*
X424500D02*
X423649Y453262D01*
X422851Y452801D01*
X422199Y452149D01*
X421738Y451351D01*
X421511Y450500D01*
X424500D01*
Y453489D01*
D02*
G37*
G36*
X405500D02*
Y450500D01*
X408490D01*
X408261Y451351D01*
X407801Y452149D01*
X407149Y452801D01*
X406351Y453262D01*
X405500Y453489D01*
D02*
G37*
G36*
X404500D02*
X403649Y453262D01*
X402851Y452801D01*
X402199Y452149D01*
X401739Y451351D01*
X401510Y450500D01*
X404500D01*
Y453489D01*
D02*
G37*
G36*
X375500D02*
Y450500D01*
X378489D01*
X378261Y451351D01*
X377801Y452149D01*
X377149Y452801D01*
X376351Y453262D01*
X375500Y453489D01*
D02*
G37*
G36*
X374500D02*
X373649Y453262D01*
X372851Y452801D01*
X372199Y452149D01*
X371739Y451351D01*
X371511Y450500D01*
X374500D01*
Y453489D01*
D02*
G37*
G36*
X365500D02*
Y450500D01*
X368490D01*
X368262Y451351D01*
X367801Y452149D01*
X367149Y452801D01*
X366351Y453262D01*
X365500Y453489D01*
D02*
G37*
G36*
X364500D02*
X363649Y453262D01*
X362851Y452801D01*
X362199Y452149D01*
X361738Y451351D01*
X361510Y450500D01*
X364500D01*
Y453489D01*
D02*
G37*
G36*
X429000Y471549D02*
X413757D01*
X412782Y471355D01*
X411955Y470802D01*
X410369Y469217D01*
X409817Y468390D01*
X409623Y467414D01*
Y465528D01*
X406472D01*
Y454472D01*
X417528D01*
Y465528D01*
X414721D01*
Y466358D01*
X414813Y466451D01*
X427944D01*
X430395Y464000D01*
X430188Y463500D01*
X429539D01*
X428649Y463262D01*
X427851Y462801D01*
X427199Y462149D01*
X426739Y461351D01*
X426510Y460500D01*
X430000D01*
Y460000D01*
X430500D01*
Y456510D01*
X431351Y456739D01*
X432149Y457199D01*
X432801Y457851D01*
X433261Y458649D01*
X433500Y459539D01*
Y460188D01*
X434000Y460395D01*
X442198Y452198D01*
X443024Y451645D01*
X444000Y451451D01*
X449647D01*
X449753Y451195D01*
X450401Y450225D01*
X451225Y449401D01*
X452195Y448753D01*
X453273Y448306D01*
X454417Y448079D01*
X455583D01*
X456727Y448306D01*
X457805Y448753D01*
X458775Y449401D01*
X459599Y450225D01*
X460247Y451195D01*
X460694Y452273D01*
X460921Y453417D01*
Y454583D01*
X460694Y455727D01*
X460247Y456805D01*
X459599Y457775D01*
X458775Y458599D01*
X457805Y459247D01*
X456727Y459694D01*
X455583Y459921D01*
X454417D01*
X453273Y459694D01*
X452195Y459247D01*
X451225Y458599D01*
X450401Y457775D01*
X449753Y456805D01*
X449647Y456549D01*
X445056D01*
X430802Y470802D01*
X429976Y471355D01*
X429000Y471549D01*
D02*
G37*
G36*
X438489Y449500D02*
X435500D01*
Y446511D01*
X436351Y446738D01*
X437149Y447199D01*
X437801Y447851D01*
X438262Y448649D01*
X438489Y449500D01*
D02*
G37*
G36*
X434500D02*
X431510D01*
X431739Y448649D01*
X432199Y447851D01*
X432851Y447199D01*
X433649Y446738D01*
X434500Y446511D01*
Y449500D01*
D02*
G37*
G36*
X428489D02*
X425500D01*
Y446511D01*
X426351Y446738D01*
X427149Y447199D01*
X427801Y447851D01*
X428262Y448649D01*
X428489Y449500D01*
D02*
G37*
G36*
X424500D02*
X421511D01*
X421738Y448649D01*
X422199Y447851D01*
X422851Y447199D01*
X423649Y446738D01*
X424500Y446511D01*
Y449500D01*
D02*
G37*
G36*
X404500D02*
X401510D01*
X401739Y448649D01*
X402199Y447851D01*
X402851Y447199D01*
X403649Y446738D01*
X404500Y446511D01*
Y449500D01*
D02*
G37*
G36*
X378489D02*
X375500D01*
Y446511D01*
X376351Y446738D01*
X377149Y447199D01*
X377801Y447851D01*
X378261Y448649D01*
X378489Y449500D01*
D02*
G37*
G36*
X374500D02*
X371511D01*
X371739Y448649D01*
X372199Y447851D01*
X372851Y447199D01*
X373649Y446738D01*
X374500Y446511D01*
Y449500D01*
D02*
G37*
G36*
X368490D02*
X365500D01*
Y446511D01*
X366351Y446738D01*
X367149Y447199D01*
X367801Y447851D01*
X368262Y448649D01*
X368490Y449500D01*
D02*
G37*
G36*
X364500D02*
X361510D01*
X361738Y448649D01*
X362199Y447851D01*
X362851Y447199D01*
X363649Y446738D01*
X364500Y446511D01*
Y449500D01*
D02*
G37*
G36*
X450500Y443490D02*
Y440500D01*
X453489D01*
X453262Y441351D01*
X452801Y442149D01*
X452149Y442801D01*
X451351Y443261D01*
X450500Y443490D01*
D02*
G37*
G36*
X449500D02*
X448649Y443261D01*
X447851Y442801D01*
X447199Y442149D01*
X446738Y441351D01*
X446511Y440500D01*
X449500D01*
Y443490D01*
D02*
G37*
G36*
X440500D02*
Y440500D01*
X443490D01*
X443261Y441351D01*
X442801Y442149D01*
X442149Y442801D01*
X441351Y443261D01*
X440500Y443490D01*
D02*
G37*
G36*
X439500D02*
X438649Y443261D01*
X437851Y442801D01*
X437199Y442149D01*
X436738Y441351D01*
X436511Y440500D01*
X439500D01*
Y443490D01*
D02*
G37*
G36*
X430500D02*
Y440500D01*
X433490D01*
X433261Y441351D01*
X432801Y442149D01*
X432149Y442801D01*
X431351Y443261D01*
X430500Y443490D01*
D02*
G37*
G36*
X429500D02*
X428649Y443261D01*
X427851Y442801D01*
X427199Y442149D01*
X426739Y441351D01*
X426510Y440500D01*
X429500D01*
Y443490D01*
D02*
G37*
G36*
X400500D02*
Y440500D01*
X403489D01*
X403262Y441351D01*
X402801Y442149D01*
X402149Y442801D01*
X401351Y443261D01*
X400500Y443490D01*
D02*
G37*
G36*
X399500D02*
X398649Y443261D01*
X397851Y442801D01*
X397199Y442149D01*
X396739Y441351D01*
X396511Y440500D01*
X399500D01*
Y443490D01*
D02*
G37*
G36*
X379500D02*
X378649Y443261D01*
X377851Y442801D01*
X377199Y442149D01*
X376739Y441351D01*
X376511Y440500D01*
X379500D01*
Y443490D01*
D02*
G37*
G36*
X370500D02*
Y440500D01*
X373489D01*
X373261Y441351D01*
X372801Y442149D01*
X372149Y442801D01*
X371351Y443261D01*
X370500Y443490D01*
D02*
G37*
G36*
X369500D02*
X368649Y443261D01*
X367851Y442801D01*
X367199Y442149D01*
X366739Y441351D01*
X366511Y440500D01*
X369500D01*
Y443490D01*
D02*
G37*
G36*
X360500D02*
Y440500D01*
X363490D01*
X363262Y441351D01*
X362801Y442149D01*
X362149Y442801D01*
X361351Y443261D01*
X360500Y443490D01*
D02*
G37*
G36*
X359500D02*
X358649Y443261D01*
X357851Y442801D01*
X357199Y442149D01*
X356738Y441351D01*
X356510Y440500D01*
X359500D01*
Y443490D01*
D02*
G37*
G36*
X453489Y439500D02*
X450500D01*
Y436511D01*
X451351Y436738D01*
X452149Y437199D01*
X452801Y437851D01*
X453262Y438649D01*
X453489Y439500D01*
D02*
G37*
G36*
X449500D02*
X446511D01*
X446738Y438649D01*
X447199Y437851D01*
X447851Y437199D01*
X448649Y436738D01*
X449500Y436511D01*
Y439500D01*
D02*
G37*
G36*
X443490D02*
X440500D01*
Y436511D01*
X441351Y436738D01*
X442149Y437199D01*
X442801Y437851D01*
X443261Y438649D01*
X443490Y439500D01*
D02*
G37*
G36*
X439500D02*
X436511D01*
X436738Y438649D01*
X437199Y437851D01*
X437851Y437199D01*
X438649Y436738D01*
X439500Y436511D01*
Y439500D01*
D02*
G37*
G36*
X433490D02*
X430500D01*
Y436511D01*
X431351Y436738D01*
X432149Y437199D01*
X432801Y437851D01*
X433261Y438649D01*
X433490Y439500D01*
D02*
G37*
G36*
X429500D02*
X426510D01*
X426739Y438649D01*
X427199Y437851D01*
X427851Y437199D01*
X428649Y436738D01*
X429500Y436511D01*
Y439500D01*
D02*
G37*
G36*
X403489D02*
X400500D01*
Y436511D01*
X401351Y436738D01*
X402149Y437199D01*
X402801Y437851D01*
X403262Y438649D01*
X403489Y439500D01*
D02*
G37*
G36*
X399500D02*
X396511D01*
X396739Y438649D01*
X397199Y437851D01*
X397851Y437199D01*
X398649Y436738D01*
X399500Y436511D01*
Y439500D01*
D02*
G37*
G36*
X379500D02*
X376511D01*
X376739Y438649D01*
X377199Y437851D01*
X377851Y437199D01*
X378649Y436738D01*
X379500Y436511D01*
Y439500D01*
D02*
G37*
G36*
X373489D02*
X370500D01*
Y436511D01*
X371351Y436738D01*
X372149Y437199D01*
X372801Y437851D01*
X373261Y438649D01*
X373489Y439500D01*
D02*
G37*
G36*
X369500D02*
X366511D01*
X366739Y438649D01*
X367199Y437851D01*
X367851Y437199D01*
X368649Y436738D01*
X369500Y436511D01*
Y439500D01*
D02*
G37*
G36*
X363490D02*
X360500D01*
Y436511D01*
X361351Y436738D01*
X362149Y437199D01*
X362801Y437851D01*
X363262Y438649D01*
X363490Y439500D01*
D02*
G37*
G36*
X359500D02*
X356510D01*
X356738Y438649D01*
X357199Y437851D01*
X357851Y437199D01*
X358649Y436738D01*
X359500Y436511D01*
Y439500D01*
D02*
G37*
G36*
X365500Y433490D02*
Y430500D01*
X368490D01*
X368262Y431351D01*
X367801Y432149D01*
X367149Y432801D01*
X366351Y433261D01*
X365500Y433490D01*
D02*
G37*
G36*
X364500D02*
X363649Y433261D01*
X362851Y432801D01*
X362199Y432149D01*
X361738Y431351D01*
X361510Y430500D01*
X364500D01*
Y433490D01*
D02*
G37*
G36*
X368490Y429500D02*
X365500D01*
Y426510D01*
X366351Y426739D01*
X367149Y427199D01*
X367801Y427851D01*
X368262Y428649D01*
X368490Y429500D01*
D02*
G37*
G36*
X364500D02*
X361510D01*
X361738Y428649D01*
X362199Y427851D01*
X362851Y427199D01*
X363649Y426739D01*
X364500Y426510D01*
Y429500D01*
D02*
G37*
G36*
X439500Y423490D02*
X438649Y423261D01*
X437851Y422801D01*
X437199Y422149D01*
X436738Y421351D01*
X436511Y420500D01*
X439500D01*
Y423490D01*
D02*
G37*
G36*
X430500D02*
Y420500D01*
X433490D01*
X433261Y421351D01*
X432801Y422149D01*
X432149Y422801D01*
X431351Y423261D01*
X430500Y423490D01*
D02*
G37*
G36*
X429500D02*
X428649Y423261D01*
X427851Y422801D01*
X427199Y422149D01*
X426739Y421351D01*
X426510Y420500D01*
X429500D01*
Y423490D01*
D02*
G37*
G36*
X400500D02*
Y420500D01*
X403489D01*
X403262Y421351D01*
X402801Y422149D01*
X402149Y422801D01*
X401351Y423261D01*
X400500Y423490D01*
D02*
G37*
G36*
X399500D02*
X398649Y423261D01*
X397851Y422801D01*
X397199Y422149D01*
X396739Y421351D01*
X396511Y420500D01*
X399500D01*
Y423490D01*
D02*
G37*
G36*
X390500D02*
Y420500D01*
X393490D01*
X393262Y421351D01*
X392801Y422149D01*
X392149Y422801D01*
X391351Y423261D01*
X390500Y423490D01*
D02*
G37*
G36*
X389500D02*
X388649Y423261D01*
X387851Y422801D01*
X387199Y422149D01*
X386738Y421351D01*
X386510Y420500D01*
X389500D01*
Y423490D01*
D02*
G37*
G36*
X360500D02*
Y420500D01*
X363490D01*
X363262Y421351D01*
X362801Y422149D01*
X362149Y422801D01*
X361351Y423261D01*
X360500Y423490D01*
D02*
G37*
G36*
X439500Y419500D02*
X436511D01*
X436738Y418649D01*
X437199Y417851D01*
X437851Y417199D01*
X438649Y416739D01*
X439500Y416510D01*
Y419500D01*
D02*
G37*
G36*
X433490D02*
X430500D01*
Y416510D01*
X431351Y416739D01*
X432149Y417199D01*
X432801Y417851D01*
X433261Y418649D01*
X433490Y419500D01*
D02*
G37*
G36*
X429500D02*
X426510D01*
X426739Y418649D01*
X427199Y417851D01*
X427851Y417199D01*
X428649Y416739D01*
X429500Y416510D01*
Y419500D01*
D02*
G37*
G36*
X403489D02*
X400500D01*
Y416510D01*
X401351Y416739D01*
X402149Y417199D01*
X402801Y417851D01*
X403262Y418649D01*
X403489Y419500D01*
D02*
G37*
G36*
X399500D02*
X396511D01*
X396739Y418649D01*
X397199Y417851D01*
X397851Y417199D01*
X398649Y416739D01*
X399500Y416510D01*
Y419500D01*
D02*
G37*
G36*
X393490D02*
X390500D01*
Y416510D01*
X391351Y416739D01*
X392149Y417199D01*
X392801Y417851D01*
X393262Y418649D01*
X393490Y419500D01*
D02*
G37*
G36*
X389500D02*
X386510D01*
X386738Y418649D01*
X387199Y417851D01*
X387851Y417199D01*
X388649Y416739D01*
X389500Y416510D01*
Y419500D01*
D02*
G37*
G36*
X363490D02*
X360500D01*
Y416510D01*
X361351Y416739D01*
X362149Y417199D01*
X362801Y417851D01*
X363262Y418649D01*
X363490Y419500D01*
D02*
G37*
G36*
X435500Y413489D02*
Y410500D01*
X438489D01*
X438262Y411351D01*
X437801Y412149D01*
X437149Y412801D01*
X436351Y413262D01*
X435500Y413489D01*
D02*
G37*
G36*
X434500D02*
X433649Y413262D01*
X432851Y412801D01*
X432199Y412149D01*
X431739Y411351D01*
X431510Y410500D01*
X434500D01*
Y413489D01*
D02*
G37*
G36*
X425500D02*
Y410500D01*
X428489D01*
X428262Y411351D01*
X427801Y412149D01*
X427149Y412801D01*
X426351Y413262D01*
X425500Y413489D01*
D02*
G37*
G36*
X424500D02*
X423649Y413262D01*
X422851Y412801D01*
X422199Y412149D01*
X421738Y411351D01*
X421511Y410500D01*
X424500D01*
Y413489D01*
D02*
G37*
G36*
X395500D02*
Y410500D01*
X398489D01*
X398261Y411351D01*
X397801Y412149D01*
X397149Y412801D01*
X396351Y413262D01*
X395500Y413489D01*
D02*
G37*
G36*
X394500D02*
X393649Y413262D01*
X392851Y412801D01*
X392199Y412149D01*
X391739Y411351D01*
X391511Y410500D01*
X394500D01*
Y413489D01*
D02*
G37*
G36*
X438489Y409500D02*
X435500D01*
Y406510D01*
X436351Y406739D01*
X437149Y407199D01*
X437801Y407851D01*
X438262Y408649D01*
X438489Y409500D01*
D02*
G37*
G36*
X434500D02*
X431510D01*
X431739Y408649D01*
X432199Y407851D01*
X432851Y407199D01*
X433649Y406739D01*
X434500Y406510D01*
Y409500D01*
D02*
G37*
G36*
X428489D02*
X425500D01*
Y406510D01*
X426351Y406739D01*
X427149Y407199D01*
X427801Y407851D01*
X428262Y408649D01*
X428489Y409500D01*
D02*
G37*
G36*
X424500D02*
X421511D01*
X421738Y408649D01*
X422199Y407851D01*
X422851Y407199D01*
X423649Y406739D01*
X424500Y406510D01*
Y409500D01*
D02*
G37*
G36*
X398489D02*
X395500D01*
Y406510D01*
X396351Y406739D01*
X397149Y407199D01*
X397801Y407851D01*
X398261Y408649D01*
X398489Y409500D01*
D02*
G37*
G36*
X394500D02*
X391511D01*
X391739Y408649D01*
X392199Y407851D01*
X392851Y407199D01*
X393649Y406739D01*
X394500Y406510D01*
Y409500D01*
D02*
G37*
G36*
X440500Y403489D02*
Y400500D01*
X443490D01*
X443261Y401351D01*
X442801Y402149D01*
X442149Y402801D01*
X441351Y403262D01*
X440500Y403489D01*
D02*
G37*
G36*
X439500D02*
X438649Y403262D01*
X437851Y402801D01*
X437199Y402149D01*
X436738Y401351D01*
X436511Y400500D01*
X439500D01*
Y403489D01*
D02*
G37*
G36*
X430500D02*
Y400500D01*
X433490D01*
X433261Y401351D01*
X432801Y402149D01*
X432149Y402801D01*
X431351Y403262D01*
X430500Y403489D01*
D02*
G37*
G36*
X429500D02*
X428649Y403262D01*
X427851Y402801D01*
X427199Y402149D01*
X426739Y401351D01*
X426510Y400500D01*
X429500D01*
Y403489D01*
D02*
G37*
G36*
X400500D02*
Y400500D01*
X403489D01*
X403262Y401351D01*
X402801Y402149D01*
X402149Y402801D01*
X401351Y403262D01*
X400500Y403489D01*
D02*
G37*
G36*
X399500D02*
X398649Y403262D01*
X397851Y402801D01*
X397199Y402149D01*
X396739Y401351D01*
X396511Y400500D01*
X399500D01*
Y403489D01*
D02*
G37*
G36*
X390500D02*
Y400500D01*
X393490D01*
X393262Y401351D01*
X392801Y402149D01*
X392149Y402801D01*
X391351Y403262D01*
X390500Y403489D01*
D02*
G37*
G36*
X389500D02*
X388649Y403262D01*
X387851Y402801D01*
X387199Y402149D01*
X386738Y401351D01*
X386510Y400500D01*
X389500D01*
Y403489D01*
D02*
G37*
G36*
X360500D02*
Y400500D01*
X363490D01*
X363262Y401351D01*
X362801Y402149D01*
X362149Y402801D01*
X361351Y403262D01*
X360500Y403489D01*
D02*
G37*
G36*
X443490Y399500D02*
X440500D01*
Y396511D01*
X441351Y396739D01*
X442149Y397199D01*
X442801Y397851D01*
X443261Y398649D01*
X443490Y399500D01*
D02*
G37*
G36*
X439500D02*
X436511D01*
X436738Y398649D01*
X437199Y397851D01*
X437851Y397199D01*
X438649Y396739D01*
X439500Y396511D01*
Y399500D01*
D02*
G37*
G36*
X433490D02*
X430500D01*
Y396511D01*
X431351Y396739D01*
X432149Y397199D01*
X432801Y397851D01*
X433261Y398649D01*
X433490Y399500D01*
D02*
G37*
G36*
X429500D02*
X426510D01*
X426739Y398649D01*
X427199Y397851D01*
X427851Y397199D01*
X428649Y396739D01*
X429500Y396511D01*
Y399500D01*
D02*
G37*
G36*
X403489D02*
X400500D01*
Y396511D01*
X401351Y396739D01*
X402149Y397199D01*
X402801Y397851D01*
X403262Y398649D01*
X403489Y399500D01*
D02*
G37*
G36*
X399500D02*
X396511D01*
X396739Y398649D01*
X397199Y397851D01*
X397851Y397199D01*
X398649Y396739D01*
X399500Y396511D01*
Y399500D01*
D02*
G37*
G36*
X393490D02*
X390500D01*
Y396511D01*
X391351Y396739D01*
X392149Y397199D01*
X392801Y397851D01*
X393262Y398649D01*
X393490Y399500D01*
D02*
G37*
G36*
X389500D02*
X386510D01*
X386738Y398649D01*
X387199Y397851D01*
X387851Y397199D01*
X388649Y396739D01*
X389500Y396511D01*
Y399500D01*
D02*
G37*
G36*
X363490D02*
X360500D01*
Y396511D01*
X361351Y396739D01*
X362149Y397199D01*
X362801Y397851D01*
X363262Y398649D01*
X363490Y399500D01*
D02*
G37*
G36*
X381020Y396776D02*
X375500D01*
Y390823D01*
X381020D01*
Y396776D01*
D02*
G37*
G36*
X374500D02*
X368980D01*
Y390823D01*
X374500D01*
Y396776D01*
D02*
G37*
G36*
X435500Y393490D02*
Y390500D01*
X438489D01*
X438262Y391351D01*
X437801Y392149D01*
X437149Y392801D01*
X436351Y393262D01*
X435500Y393490D01*
D02*
G37*
G36*
X434500D02*
X433649Y393262D01*
X432851Y392801D01*
X432199Y392149D01*
X431739Y391351D01*
X431510Y390500D01*
X434500D01*
Y393490D01*
D02*
G37*
G36*
X425500D02*
Y390500D01*
X428489D01*
X428262Y391351D01*
X427801Y392149D01*
X427149Y392801D01*
X426351Y393262D01*
X425500Y393490D01*
D02*
G37*
G36*
X424500D02*
X423649Y393262D01*
X422851Y392801D01*
X422199Y392149D01*
X421738Y391351D01*
X421511Y390500D01*
X424500D01*
Y393490D01*
D02*
G37*
G36*
X395500D02*
Y390500D01*
X398489D01*
X398261Y391351D01*
X397801Y392149D01*
X397149Y392801D01*
X396351Y393262D01*
X395500Y393490D01*
D02*
G37*
G36*
X394500D02*
X393649Y393262D01*
X392851Y392801D01*
X392199Y392149D01*
X391739Y391351D01*
X391511Y390500D01*
X394500D01*
Y393490D01*
D02*
G37*
G36*
X456020Y395776D02*
X450500D01*
Y389823D01*
X456020D01*
Y395776D01*
D02*
G37*
G36*
X449500D02*
X443980D01*
Y389823D01*
X449500D01*
Y395776D01*
D02*
G37*
G36*
X418020D02*
X412500D01*
Y389823D01*
X418020D01*
Y395776D01*
D02*
G37*
G36*
X411500D02*
X405980D01*
Y389823D01*
X411500D01*
Y395776D01*
D02*
G37*
G36*
X438489Y389500D02*
X435500D01*
Y386510D01*
X436351Y386738D01*
X437149Y387199D01*
X437801Y387851D01*
X438262Y388649D01*
X438489Y389500D01*
D02*
G37*
G36*
X434500D02*
X431510D01*
X431739Y388649D01*
X432199Y387851D01*
X432851Y387199D01*
X433649Y386738D01*
X434500Y386510D01*
Y389500D01*
D02*
G37*
G36*
X428489D02*
X425500D01*
Y386510D01*
X426351Y386738D01*
X427149Y387199D01*
X427801Y387851D01*
X428262Y388649D01*
X428489Y389500D01*
D02*
G37*
G36*
X424500D02*
X421511D01*
X421738Y388649D01*
X422199Y387851D01*
X422851Y387199D01*
X423649Y386738D01*
X424500Y386510D01*
Y389500D01*
D02*
G37*
G36*
X398489D02*
X395500D01*
Y386510D01*
X396351Y386738D01*
X397149Y387199D01*
X397801Y387851D01*
X398261Y388649D01*
X398489Y389500D01*
D02*
G37*
G36*
X394500D02*
X391511D01*
X391739Y388649D01*
X392199Y387851D01*
X392851Y387199D01*
X393649Y386738D01*
X394500Y386510D01*
Y389500D01*
D02*
G37*
G36*
X456020Y388823D02*
X443980D01*
Y382870D01*
X447213D01*
X447420Y382370D01*
X447199Y382149D01*
X446738Y381351D01*
X446511Y380500D01*
X453489D01*
X453262Y381351D01*
X452801Y382149D01*
X452580Y382370D01*
X452787Y382870D01*
X456020D01*
Y388823D01*
D02*
G37*
G36*
X440500Y383489D02*
Y380500D01*
X443490D01*
X443261Y381351D01*
X442801Y382149D01*
X442149Y382801D01*
X441351Y383261D01*
X440500Y383489D01*
D02*
G37*
G36*
X439500D02*
X438649Y383261D01*
X437851Y382801D01*
X437199Y382149D01*
X436738Y381351D01*
X436511Y380500D01*
X439500D01*
Y383489D01*
D02*
G37*
G36*
X430500D02*
Y380500D01*
X433490D01*
X433261Y381351D01*
X432801Y382149D01*
X432149Y382801D01*
X431351Y383261D01*
X430500Y383489D01*
D02*
G37*
G36*
X429500D02*
X428649Y383261D01*
X427851Y382801D01*
X427199Y382149D01*
X426739Y381351D01*
X426510Y380500D01*
X429500D01*
Y383489D01*
D02*
G37*
G36*
X420500D02*
Y380500D01*
X423490D01*
X423261Y381351D01*
X422801Y382149D01*
X422149Y382801D01*
X421351Y383261D01*
X420500Y383489D01*
D02*
G37*
G36*
X418020Y388823D02*
X405980D01*
Y382870D01*
X407213D01*
X407420Y382370D01*
X407199Y382149D01*
X406739Y381351D01*
X406510Y380500D01*
X413489D01*
X413262Y381351D01*
X412801Y382149D01*
X412580Y382370D01*
X412787Y382870D01*
X417213D01*
X417420Y382370D01*
X417199Y382149D01*
X416739Y381351D01*
X416510Y380500D01*
X419500D01*
Y383489D01*
X418649Y383261D01*
X418453Y383148D01*
X418020Y383398D01*
Y388823D01*
D02*
G37*
G36*
X400500Y383489D02*
Y380500D01*
X403489D01*
X403262Y381351D01*
X402801Y382149D01*
X402149Y382801D01*
X401351Y383261D01*
X400500Y383489D01*
D02*
G37*
G36*
X399500D02*
X398649Y383261D01*
X397851Y382801D01*
X397199Y382149D01*
X396739Y381351D01*
X396511Y380500D01*
X399500D01*
Y383489D01*
D02*
G37*
G36*
X390500D02*
Y380500D01*
X393490D01*
X393262Y381351D01*
X392801Y382149D01*
X392149Y382801D01*
X391351Y383261D01*
X390500Y383489D01*
D02*
G37*
G36*
X389500D02*
X388649Y383261D01*
X387851Y382801D01*
X387199Y382149D01*
X386738Y381351D01*
X386510Y380500D01*
X389500D01*
Y383489D01*
D02*
G37*
G36*
X381020Y389823D02*
X375500D01*
Y383870D01*
X378989D01*
X379054Y383370D01*
X378649Y383261D01*
X377851Y382801D01*
X377199Y382149D01*
X376739Y381351D01*
X376511Y380500D01*
X383489D01*
X383261Y381351D01*
X382801Y382149D01*
X382149Y382801D01*
X381351Y383261D01*
X380946Y383370D01*
X381011Y383870D01*
X381020D01*
Y389823D01*
D02*
G37*
G36*
X374500D02*
X368980D01*
Y383870D01*
X368989D01*
X369054Y383370D01*
X368649Y383261D01*
X367851Y382801D01*
X367199Y382149D01*
X366739Y381351D01*
X366511Y380500D01*
X373489D01*
X373261Y381351D01*
X372801Y382149D01*
X372149Y382801D01*
X371351Y383261D01*
X370946Y383370D01*
X371011Y383870D01*
X374500D01*
Y389823D01*
D02*
G37*
G36*
X360500Y383489D02*
Y380500D01*
X363490D01*
X363262Y381351D01*
X362801Y382149D01*
X362149Y382801D01*
X361351Y383261D01*
X360500Y383489D01*
D02*
G37*
G36*
X453489Y379500D02*
X450500D01*
Y376511D01*
X451351Y376739D01*
X452149Y377199D01*
X452801Y377851D01*
X453262Y378649D01*
X453489Y379500D01*
D02*
G37*
G36*
X449500D02*
X446511D01*
X446738Y378649D01*
X447199Y377851D01*
X447851Y377199D01*
X448649Y376739D01*
X449500Y376511D01*
Y379500D01*
D02*
G37*
G36*
X443490D02*
X440500D01*
Y376511D01*
X441351Y376739D01*
X442149Y377199D01*
X442801Y377851D01*
X443261Y378649D01*
X443490Y379500D01*
D02*
G37*
G36*
X439500D02*
X436511D01*
X436738Y378649D01*
X437199Y377851D01*
X437851Y377199D01*
X438649Y376739D01*
X439500Y376511D01*
Y379500D01*
D02*
G37*
G36*
X433490D02*
X430500D01*
Y376511D01*
X431351Y376739D01*
X432149Y377199D01*
X432801Y377851D01*
X433261Y378649D01*
X433490Y379500D01*
D02*
G37*
G36*
X429500D02*
X426510D01*
X426739Y378649D01*
X427199Y377851D01*
X427851Y377199D01*
X428649Y376739D01*
X429500Y376511D01*
Y379500D01*
D02*
G37*
G36*
X423490D02*
X420500D01*
Y376511D01*
X421351Y376739D01*
X422149Y377199D01*
X422801Y377851D01*
X423261Y378649D01*
X423490Y379500D01*
D02*
G37*
G36*
X419500D02*
X416510D01*
X416739Y378649D01*
X417199Y377851D01*
X417851Y377199D01*
X418649Y376739D01*
X419500Y376511D01*
Y379500D01*
D02*
G37*
G36*
X413489D02*
X410500D01*
Y376511D01*
X411351Y376739D01*
X412149Y377199D01*
X412801Y377851D01*
X413262Y378649D01*
X413489Y379500D01*
D02*
G37*
G36*
X409500D02*
X406510D01*
X406739Y378649D01*
X407199Y377851D01*
X407851Y377199D01*
X408649Y376739D01*
X409500Y376511D01*
Y379500D01*
D02*
G37*
G36*
X403489D02*
X400500D01*
Y376511D01*
X401351Y376739D01*
X402149Y377199D01*
X402801Y377851D01*
X403262Y378649D01*
X403489Y379500D01*
D02*
G37*
G36*
X399500D02*
X396511D01*
X396739Y378649D01*
X397199Y377851D01*
X397851Y377199D01*
X398649Y376739D01*
X399500Y376511D01*
Y379500D01*
D02*
G37*
G36*
X393490D02*
X390500D01*
Y376511D01*
X391351Y376739D01*
X392149Y377199D01*
X392801Y377851D01*
X393262Y378649D01*
X393490Y379500D01*
D02*
G37*
G36*
X389500D02*
X386510D01*
X386738Y378649D01*
X387199Y377851D01*
X387851Y377199D01*
X388649Y376739D01*
X389500Y376511D01*
Y379500D01*
D02*
G37*
G36*
X383489D02*
X380500D01*
Y376511D01*
X381351Y376739D01*
X382149Y377199D01*
X382801Y377851D01*
X383261Y378649D01*
X383489Y379500D01*
D02*
G37*
G36*
X379500D02*
X376511D01*
X376739Y378649D01*
X377199Y377851D01*
X377851Y377199D01*
X378649Y376739D01*
X379500Y376511D01*
Y379500D01*
D02*
G37*
G36*
X373489D02*
X370500D01*
Y376511D01*
X371351Y376739D01*
X372149Y377199D01*
X372801Y377851D01*
X373261Y378649D01*
X373489Y379500D01*
D02*
G37*
G36*
X369500D02*
X366511D01*
X366739Y378649D01*
X367199Y377851D01*
X367851Y377199D01*
X368649Y376739D01*
X369500Y376511D01*
Y379500D01*
D02*
G37*
G36*
X363490D02*
X360500D01*
Y376511D01*
X361351Y376739D01*
X362149Y377199D01*
X362801Y377851D01*
X363262Y378649D01*
X363490Y379500D01*
D02*
G37*
G36*
X405425Y374658D02*
X399488D01*
Y373549D01*
X392401D01*
X392149Y373801D01*
X391351Y374261D01*
X390461Y374500D01*
X389539D01*
X388649Y374261D01*
X387851Y373801D01*
X387199Y373149D01*
X386738Y372351D01*
X386500Y371461D01*
Y370539D01*
X386738Y369649D01*
X387199Y368851D01*
X387851Y368199D01*
X388649Y367739D01*
X389539Y367500D01*
X390461D01*
X391351Y367739D01*
X392149Y368199D01*
X392401Y368451D01*
X399488D01*
Y367342D01*
X405425D01*
Y374658D01*
D02*
G37*
G36*
X450500Y363490D02*
Y360500D01*
X453489D01*
X453262Y361351D01*
X452801Y362149D01*
X452149Y362801D01*
X451351Y363262D01*
X450500Y363490D01*
D02*
G37*
G36*
X449500D02*
X448649Y363262D01*
X447851Y362801D01*
X447199Y362149D01*
X446738Y361351D01*
X446511Y360500D01*
X449500D01*
Y363490D01*
D02*
G37*
G36*
X440500D02*
Y360500D01*
X443490D01*
X443261Y361351D01*
X442801Y362149D01*
X442149Y362801D01*
X441351Y363262D01*
X440500Y363490D01*
D02*
G37*
G36*
X439500D02*
X438649Y363262D01*
X437851Y362801D01*
X437199Y362149D01*
X436738Y361351D01*
X436511Y360500D01*
X439500D01*
Y363490D01*
D02*
G37*
G36*
X410500D02*
Y360500D01*
X413489D01*
X413262Y361351D01*
X412801Y362149D01*
X412149Y362801D01*
X411351Y363262D01*
X410500Y363490D01*
D02*
G37*
G36*
X409500D02*
X408649Y363262D01*
X407851Y362801D01*
X407199Y362149D01*
X406739Y361351D01*
X406510Y360500D01*
X409500D01*
Y363490D01*
D02*
G37*
G36*
X400500D02*
Y360500D01*
X403489D01*
X403262Y361351D01*
X402801Y362149D01*
X402149Y362801D01*
X401351Y363262D01*
X400500Y363490D01*
D02*
G37*
G36*
X399500D02*
X398649Y363262D01*
X397851Y362801D01*
X397199Y362149D01*
X396739Y361351D01*
X396511Y360500D01*
X399500D01*
Y363490D01*
D02*
G37*
G36*
X390500D02*
Y360500D01*
X393490D01*
X393262Y361351D01*
X392801Y362149D01*
X392149Y362801D01*
X391351Y363262D01*
X390500Y363490D01*
D02*
G37*
G36*
X389500D02*
X388649Y363262D01*
X387851Y362801D01*
X387199Y362149D01*
X386738Y361351D01*
X386510Y360500D01*
X389500D01*
Y363490D01*
D02*
G37*
G36*
X380500D02*
Y360500D01*
X383489D01*
X383261Y361351D01*
X382801Y362149D01*
X382149Y362801D01*
X381351Y363262D01*
X380500Y363490D01*
D02*
G37*
G36*
X379500D02*
X378649Y363262D01*
X377851Y362801D01*
X377199Y362149D01*
X376739Y361351D01*
X376511Y360500D01*
X379500D01*
Y363490D01*
D02*
G37*
G36*
X370500D02*
Y360500D01*
X373489D01*
X373261Y361351D01*
X372801Y362149D01*
X372149Y362801D01*
X371351Y363262D01*
X370500Y363490D01*
D02*
G37*
G36*
X369500D02*
X368649Y363262D01*
X367851Y362801D01*
X367199Y362149D01*
X366739Y361351D01*
X366511Y360500D01*
X369500D01*
Y363490D01*
D02*
G37*
G36*
X360500D02*
Y360500D01*
X363490D01*
X363262Y361351D01*
X362801Y362149D01*
X362149Y362801D01*
X361351Y363262D01*
X360500Y363490D01*
D02*
G37*
G36*
X427658Y361425D02*
X424500D01*
Y358957D01*
X427658D01*
Y361425D01*
D02*
G37*
G36*
X423500D02*
X420342D01*
Y358957D01*
X423500D01*
Y361425D01*
D02*
G37*
G36*
X453489Y359500D02*
X450500D01*
Y356510D01*
X451351Y356738D01*
X452149Y357199D01*
X452801Y357851D01*
X453262Y358649D01*
X453489Y359500D01*
D02*
G37*
G36*
X449500D02*
X446511D01*
X446738Y358649D01*
X447199Y357851D01*
X447851Y357199D01*
X448649Y356738D01*
X449500Y356510D01*
Y359500D01*
D02*
G37*
G36*
X443490D02*
X440500D01*
Y356510D01*
X441351Y356738D01*
X442149Y357199D01*
X442801Y357851D01*
X443261Y358649D01*
X443490Y359500D01*
D02*
G37*
G36*
X439500D02*
X436511D01*
X436738Y358649D01*
X437199Y357851D01*
X437851Y357199D01*
X438649Y356738D01*
X439500Y356510D01*
Y359500D01*
D02*
G37*
G36*
X413489D02*
X410500D01*
Y356510D01*
X411351Y356738D01*
X412149Y357199D01*
X412801Y357851D01*
X413262Y358649D01*
X413489Y359500D01*
D02*
G37*
G36*
X409500D02*
X406510D01*
X406739Y358649D01*
X407199Y357851D01*
X407851Y357199D01*
X408649Y356738D01*
X409500Y356510D01*
Y359500D01*
D02*
G37*
G36*
X403489D02*
X400500D01*
Y356510D01*
X401351Y356738D01*
X402149Y357199D01*
X402801Y357851D01*
X403262Y358649D01*
X403489Y359500D01*
D02*
G37*
G36*
X399500D02*
X396511D01*
X396739Y358649D01*
X397199Y357851D01*
X397851Y357199D01*
X398649Y356738D01*
X399500Y356510D01*
Y359500D01*
D02*
G37*
G36*
X393490D02*
X390500D01*
Y356510D01*
X391351Y356738D01*
X392149Y357199D01*
X392801Y357851D01*
X393262Y358649D01*
X393490Y359500D01*
D02*
G37*
G36*
X389500D02*
X386510D01*
X386738Y358649D01*
X387199Y357851D01*
X387851Y357199D01*
X388649Y356738D01*
X389500Y356510D01*
Y359500D01*
D02*
G37*
G36*
X383489D02*
X380500D01*
Y356510D01*
X381351Y356738D01*
X382149Y357199D01*
X382801Y357851D01*
X383261Y358649D01*
X383489Y359500D01*
D02*
G37*
G36*
X379500D02*
X376511D01*
X376739Y358649D01*
X377199Y357851D01*
X377851Y357199D01*
X378649Y356738D01*
X379500Y356510D01*
Y359500D01*
D02*
G37*
G36*
X373489D02*
X370500D01*
Y356510D01*
X371351Y356738D01*
X372149Y357199D01*
X372801Y357851D01*
X373261Y358649D01*
X373489Y359500D01*
D02*
G37*
G36*
X369500D02*
X366511D01*
X366739Y358649D01*
X367199Y357851D01*
X367851Y357199D01*
X368649Y356738D01*
X369500Y356510D01*
Y359500D01*
D02*
G37*
G36*
X363490D02*
X360500D01*
Y356510D01*
X361351Y356738D01*
X362149Y357199D01*
X362801Y357851D01*
X363262Y358649D01*
X363490Y359500D01*
D02*
G37*
G36*
X385500Y353489D02*
Y350500D01*
X388490D01*
X388262Y351351D01*
X387801Y352149D01*
X387149Y352801D01*
X386351Y353261D01*
X385500Y353489D01*
D02*
G37*
G36*
X384500D02*
X383649Y353261D01*
X382851Y352801D01*
X382199Y352149D01*
X381738Y351351D01*
X381510Y350500D01*
X384500D01*
Y353489D01*
D02*
G37*
G36*
X375500D02*
Y350500D01*
X378489D01*
X378261Y351351D01*
X377801Y352149D01*
X377149Y352801D01*
X376351Y353261D01*
X375500Y353489D01*
D02*
G37*
G36*
X374500D02*
X373649Y353261D01*
X372851Y352801D01*
X372199Y352149D01*
X371739Y351351D01*
X371511Y350500D01*
X374500D01*
Y353489D01*
D02*
G37*
G36*
X365500D02*
Y350500D01*
X368490D01*
X368262Y351351D01*
X367801Y352149D01*
X367149Y352801D01*
X366351Y353261D01*
X365500Y353489D01*
D02*
G37*
G36*
X364500D02*
X363649Y353261D01*
X362851Y352801D01*
X362199Y352149D01*
X361738Y351351D01*
X361510Y350500D01*
X364500D01*
Y353489D01*
D02*
G37*
G36*
X388490Y349500D02*
X385500D01*
Y346511D01*
X386351Y346739D01*
X387149Y347199D01*
X387801Y347851D01*
X388262Y348649D01*
X388490Y349500D01*
D02*
G37*
G36*
X384500D02*
X381510D01*
X381738Y348649D01*
X382199Y347851D01*
X382851Y347199D01*
X383649Y346739D01*
X384500Y346511D01*
Y349500D01*
D02*
G37*
G36*
X378489D02*
X375500D01*
Y346511D01*
X376351Y346739D01*
X377149Y347199D01*
X377801Y347851D01*
X378261Y348649D01*
X378489Y349500D01*
D02*
G37*
G36*
X374500D02*
X371511D01*
X371739Y348649D01*
X372199Y347851D01*
X372851Y347199D01*
X373649Y346739D01*
X374500Y346511D01*
Y349500D01*
D02*
G37*
G36*
X368490D02*
X365500D01*
Y346511D01*
X366351Y346739D01*
X367149Y347199D01*
X367801Y347851D01*
X368262Y348649D01*
X368490Y349500D01*
D02*
G37*
G36*
X364500D02*
X361510D01*
X361738Y348649D01*
X362199Y347851D01*
X362851Y347199D01*
X363649Y346739D01*
X364500Y346511D01*
Y349500D01*
D02*
G37*
G36*
X440500Y343490D02*
Y340500D01*
X443490D01*
X443261Y341351D01*
X442801Y342149D01*
X442149Y342801D01*
X441351Y343262D01*
X440500Y343490D01*
D02*
G37*
G36*
X439500D02*
X438649Y343262D01*
X437851Y342801D01*
X437199Y342149D01*
X436738Y341351D01*
X436511Y340500D01*
X439500D01*
Y343490D01*
D02*
G37*
G36*
X380500D02*
Y340500D01*
X383489D01*
X383261Y341351D01*
X382801Y342149D01*
X382149Y342801D01*
X381351Y343262D01*
X380500Y343490D01*
D02*
G37*
G36*
X379500D02*
X378649Y343262D01*
X377851Y342801D01*
X377199Y342149D01*
X376739Y341351D01*
X376511Y340500D01*
X379500D01*
Y343490D01*
D02*
G37*
G36*
X370500D02*
Y340500D01*
X373489D01*
X373261Y341351D01*
X372801Y342149D01*
X372149Y342801D01*
X371351Y343262D01*
X370500Y343490D01*
D02*
G37*
G36*
X369500D02*
X368649Y343262D01*
X367851Y342801D01*
X367199Y342149D01*
X366739Y341351D01*
X366511Y340500D01*
X369500D01*
Y343490D01*
D02*
G37*
G36*
X360500D02*
Y340500D01*
X363490D01*
X363262Y341351D01*
X362801Y342149D01*
X362149Y342801D01*
X361351Y343262D01*
X360500Y343490D01*
D02*
G37*
G36*
X443490Y339500D02*
X440500D01*
Y336510D01*
X441351Y336738D01*
X442149Y337199D01*
X442801Y337851D01*
X443261Y338649D01*
X443490Y339500D01*
D02*
G37*
G36*
X439500D02*
X436511D01*
X436738Y338649D01*
X437199Y337851D01*
X437851Y337199D01*
X438649Y336738D01*
X439500Y336510D01*
Y339500D01*
D02*
G37*
G36*
X383489D02*
X380500D01*
Y336510D01*
X381351Y336738D01*
X382149Y337199D01*
X382801Y337851D01*
X383261Y338649D01*
X383489Y339500D01*
D02*
G37*
G36*
X379500D02*
X376511D01*
X376739Y338649D01*
X377199Y337851D01*
X377851Y337199D01*
X378649Y336738D01*
X379500Y336510D01*
Y339500D01*
D02*
G37*
G36*
X373489D02*
X370500D01*
Y336510D01*
X371351Y336738D01*
X372149Y337199D01*
X372801Y337851D01*
X373261Y338649D01*
X373489Y339500D01*
D02*
G37*
G36*
X369500D02*
X366511D01*
X366739Y338649D01*
X367199Y337851D01*
X367851Y337199D01*
X368649Y336738D01*
X369500Y336510D01*
Y339500D01*
D02*
G37*
G36*
X363490D02*
X360500D01*
Y336510D01*
X361351Y336738D01*
X362149Y337199D01*
X362801Y337851D01*
X363262Y338649D01*
X363490Y339500D01*
D02*
G37*
G36*
X412266Y352260D02*
X391274D01*
Y330500D01*
X412266D01*
Y352260D01*
D02*
G37*
G36*
X385500Y333489D02*
Y330500D01*
X388490D01*
X388262Y331351D01*
X387801Y332149D01*
X387149Y332801D01*
X386351Y333261D01*
X385500Y333489D01*
D02*
G37*
G36*
X384500D02*
X383649Y333261D01*
X382851Y332801D01*
X382199Y332149D01*
X381738Y331351D01*
X381510Y330500D01*
X384500D01*
Y333489D01*
D02*
G37*
G36*
X375500D02*
Y330500D01*
X378489D01*
X378261Y331351D01*
X377801Y332149D01*
X377149Y332801D01*
X376351Y333261D01*
X375500Y333489D01*
D02*
G37*
G36*
X374500D02*
X373649Y333261D01*
X372851Y332801D01*
X372199Y332149D01*
X371739Y331351D01*
X371511Y330500D01*
X374500D01*
Y333489D01*
D02*
G37*
G36*
X365500D02*
Y330500D01*
X368490D01*
X368262Y331351D01*
X367801Y332149D01*
X367149Y332801D01*
X366351Y333261D01*
X365500Y333489D01*
D02*
G37*
G36*
X364500D02*
X363649Y333261D01*
X362851Y332801D01*
X362199Y332149D01*
X361738Y331351D01*
X361510Y330500D01*
X364500D01*
Y333489D01*
D02*
G37*
G36*
X388490Y329500D02*
X385500D01*
Y326511D01*
X386351Y326739D01*
X387149Y327199D01*
X387801Y327851D01*
X388262Y328649D01*
X388490Y329500D01*
D02*
G37*
G36*
X384500D02*
X381510D01*
X381738Y328649D01*
X382199Y327851D01*
X382851Y327199D01*
X383649Y326739D01*
X384500Y326511D01*
Y329500D01*
D02*
G37*
G36*
X378489D02*
X375500D01*
Y326511D01*
X376351Y326739D01*
X377149Y327199D01*
X377801Y327851D01*
X378261Y328649D01*
X378489Y329500D01*
D02*
G37*
G36*
X374500D02*
X371511D01*
X371739Y328649D01*
X372199Y327851D01*
X372851Y327199D01*
X373649Y326739D01*
X374500Y326511D01*
Y329500D01*
D02*
G37*
G36*
X368490D02*
X365500D01*
Y326511D01*
X366351Y326739D01*
X367149Y327199D01*
X367801Y327851D01*
X368262Y328649D01*
X368490Y329500D01*
D02*
G37*
G36*
X364500D02*
X361510D01*
X361738Y328649D01*
X362199Y327851D01*
X362851Y327199D01*
X363649Y326739D01*
X364500Y326511D01*
Y329500D01*
D02*
G37*
G36*
X380500Y323489D02*
Y320500D01*
X383489D01*
X383261Y321351D01*
X382801Y322149D01*
X382149Y322801D01*
X381351Y323261D01*
X380500Y323489D01*
D02*
G37*
G36*
X379500D02*
X378649Y323261D01*
X377851Y322801D01*
X377199Y322149D01*
X376739Y321351D01*
X376511Y320500D01*
X379500D01*
Y323489D01*
D02*
G37*
G36*
X370500D02*
Y320500D01*
X373489D01*
X373261Y321351D01*
X372801Y322149D01*
X372149Y322801D01*
X371351Y323261D01*
X370500Y323489D01*
D02*
G37*
G36*
X369500D02*
X368649Y323261D01*
X367851Y322801D01*
X367199Y322149D01*
X366739Y321351D01*
X366511Y320500D01*
X369500D01*
Y323489D01*
D02*
G37*
G36*
X360500D02*
Y320500D01*
X363490D01*
X363262Y321351D01*
X362801Y322149D01*
X362149Y322801D01*
X361351Y323261D01*
X360500Y323489D01*
D02*
G37*
G36*
X383489Y319500D02*
X380500D01*
Y316511D01*
X381351Y316739D01*
X382149Y317199D01*
X382801Y317851D01*
X383261Y318649D01*
X383489Y319500D01*
D02*
G37*
G36*
X379500D02*
X376511D01*
X376739Y318649D01*
X377199Y317851D01*
X377851Y317199D01*
X378649Y316739D01*
X379500Y316511D01*
Y319500D01*
D02*
G37*
G36*
X373489D02*
X370500D01*
Y316511D01*
X371351Y316739D01*
X372149Y317199D01*
X372801Y317851D01*
X373261Y318649D01*
X373489Y319500D01*
D02*
G37*
G36*
X369500D02*
X366511D01*
X366739Y318649D01*
X367199Y317851D01*
X367851Y317199D01*
X368649Y316739D01*
X369500Y316511D01*
Y319500D01*
D02*
G37*
G36*
X363490D02*
X360500D01*
Y316511D01*
X361351Y316739D01*
X362149Y317199D01*
X362801Y317851D01*
X363262Y318649D01*
X363490Y319500D01*
D02*
G37*
G36*
X385500Y313490D02*
Y310500D01*
X388490D01*
X388262Y311351D01*
X387801Y312149D01*
X387149Y312801D01*
X386351Y313262D01*
X385500Y313490D01*
D02*
G37*
G36*
X384500D02*
X383649Y313262D01*
X382851Y312801D01*
X382199Y312149D01*
X381738Y311351D01*
X381510Y310500D01*
X384500D01*
Y313490D01*
D02*
G37*
G36*
X375500D02*
Y310500D01*
X378489D01*
X378261Y311351D01*
X377801Y312149D01*
X377149Y312801D01*
X376351Y313262D01*
X375500Y313490D01*
D02*
G37*
G36*
X374500D02*
X373649Y313262D01*
X372851Y312801D01*
X372199Y312149D01*
X371739Y311351D01*
X371511Y310500D01*
X374500D01*
Y313490D01*
D02*
G37*
G36*
X365500D02*
Y310500D01*
X368490D01*
X368262Y311351D01*
X367801Y312149D01*
X367149Y312801D01*
X366351Y313262D01*
X365500Y313490D01*
D02*
G37*
G36*
X364500D02*
X363649Y313262D01*
X362851Y312801D01*
X362199Y312149D01*
X361738Y311351D01*
X361510Y310500D01*
X364500D01*
Y313490D01*
D02*
G37*
G36*
X412266Y329500D02*
X391274D01*
Y307740D01*
X412266D01*
Y329500D01*
D02*
G37*
G36*
X388490Y309500D02*
X385500D01*
Y306510D01*
X386351Y306738D01*
X387149Y307199D01*
X387801Y307851D01*
X388262Y308649D01*
X388490Y309500D01*
D02*
G37*
G36*
X384500D02*
X381510D01*
X381738Y308649D01*
X382199Y307851D01*
X382851Y307199D01*
X383649Y306738D01*
X384500Y306510D01*
Y309500D01*
D02*
G37*
G36*
X378489D02*
X375500D01*
Y306510D01*
X376351Y306738D01*
X377149Y307199D01*
X377801Y307851D01*
X378261Y308649D01*
X378489Y309500D01*
D02*
G37*
G36*
X374500D02*
X371511D01*
X371739Y308649D01*
X372199Y307851D01*
X372851Y307199D01*
X373649Y306738D01*
X374500Y306510D01*
Y309500D01*
D02*
G37*
G36*
X368490D02*
X365500D01*
Y306510D01*
X366351Y306738D01*
X367149Y307199D01*
X367801Y307851D01*
X368262Y308649D01*
X368490Y309500D01*
D02*
G37*
G36*
X364500D02*
X361510D01*
X361738Y308649D01*
X362199Y307851D01*
X362851Y307199D01*
X363649Y306738D01*
X364500Y306510D01*
Y309500D01*
D02*
G37*
G36*
X430500Y303489D02*
Y300500D01*
X433490D01*
X433261Y301351D01*
X432801Y302149D01*
X432149Y302801D01*
X431351Y303261D01*
X430500Y303489D01*
D02*
G37*
G36*
X429500D02*
X428649Y303261D01*
X427851Y302801D01*
X427199Y302149D01*
X426739Y301351D01*
X426510Y300500D01*
X429500D01*
Y303489D01*
D02*
G37*
G36*
X420500D02*
Y300500D01*
X423490D01*
X423261Y301351D01*
X422801Y302149D01*
X422149Y302801D01*
X421351Y303261D01*
X420500Y303489D01*
D02*
G37*
G36*
X419500D02*
X418649Y303261D01*
X417851Y302801D01*
X417199Y302149D01*
X416739Y301351D01*
X416510Y300500D01*
X419500D01*
Y303489D01*
D02*
G37*
G36*
X410500D02*
Y300500D01*
X413489D01*
X413262Y301351D01*
X412801Y302149D01*
X412149Y302801D01*
X411351Y303261D01*
X410500Y303489D01*
D02*
G37*
G36*
X409500D02*
X408649Y303261D01*
X407851Y302801D01*
X407199Y302149D01*
X406739Y301351D01*
X406510Y300500D01*
X409500D01*
Y303489D01*
D02*
G37*
G36*
X400500D02*
Y300500D01*
X403489D01*
X403262Y301351D01*
X402801Y302149D01*
X402149Y302801D01*
X401351Y303261D01*
X400500Y303489D01*
D02*
G37*
G36*
X399500D02*
X398649Y303261D01*
X397851Y302801D01*
X397199Y302149D01*
X396739Y301351D01*
X396511Y300500D01*
X399500D01*
Y303489D01*
D02*
G37*
G36*
X390500D02*
Y300500D01*
X393490D01*
X393262Y301351D01*
X392801Y302149D01*
X392149Y302801D01*
X391351Y303261D01*
X390500Y303489D01*
D02*
G37*
G36*
X389500D02*
X388649Y303261D01*
X387851Y302801D01*
X387199Y302149D01*
X386738Y301351D01*
X386510Y300500D01*
X389500D01*
Y303489D01*
D02*
G37*
G36*
X380500D02*
Y300500D01*
X383489D01*
X383261Y301351D01*
X382801Y302149D01*
X382149Y302801D01*
X381351Y303261D01*
X380500Y303489D01*
D02*
G37*
G36*
X379500D02*
X378649Y303261D01*
X377851Y302801D01*
X377199Y302149D01*
X376739Y301351D01*
X376511Y300500D01*
X379500D01*
Y303489D01*
D02*
G37*
G36*
X433490Y299500D02*
X430500D01*
Y296511D01*
X431351Y296739D01*
X432149Y297199D01*
X432801Y297851D01*
X433261Y298649D01*
X433490Y299500D01*
D02*
G37*
G36*
X429500D02*
X426510D01*
X426739Y298649D01*
X427199Y297851D01*
X427851Y297199D01*
X428649Y296739D01*
X429500Y296511D01*
Y299500D01*
D02*
G37*
G36*
X423490D02*
X420500D01*
Y296511D01*
X421351Y296739D01*
X422149Y297199D01*
X422801Y297851D01*
X423261Y298649D01*
X423490Y299500D01*
D02*
G37*
G36*
X419500D02*
X416510D01*
X416739Y298649D01*
X417199Y297851D01*
X417851Y297199D01*
X418649Y296739D01*
X419500Y296511D01*
Y299500D01*
D02*
G37*
G36*
X413489D02*
X410500D01*
Y296511D01*
X411351Y296739D01*
X412149Y297199D01*
X412801Y297851D01*
X413262Y298649D01*
X413489Y299500D01*
D02*
G37*
G36*
X409500D02*
X406510D01*
X406739Y298649D01*
X407199Y297851D01*
X407851Y297199D01*
X408649Y296739D01*
X409500Y296511D01*
Y299500D01*
D02*
G37*
G36*
X393490D02*
X390500D01*
Y296511D01*
X391351Y296739D01*
X392149Y297199D01*
X392801Y297851D01*
X393262Y298649D01*
X393490Y299500D01*
D02*
G37*
G36*
X389500D02*
X386510D01*
X386738Y298649D01*
X387199Y297851D01*
X387851Y297199D01*
X388649Y296739D01*
X389500Y296511D01*
Y299500D01*
D02*
G37*
G36*
X383489D02*
X380500D01*
Y296511D01*
X381351Y296739D01*
X382149Y297199D01*
X382801Y297851D01*
X383261Y298649D01*
X383489Y299500D01*
D02*
G37*
G36*
X379500D02*
X376511D01*
X376739Y298649D01*
X377199Y297851D01*
X377851Y297199D01*
X378649Y296739D01*
X379500Y296511D01*
Y299500D01*
D02*
G37*
G36*
X435500Y293490D02*
Y290500D01*
X438489D01*
X438262Y291351D01*
X437801Y292149D01*
X437149Y292801D01*
X436351Y293262D01*
X435500Y293490D01*
D02*
G37*
G36*
X434500D02*
X433649Y293262D01*
X432851Y292801D01*
X432199Y292149D01*
X431739Y291351D01*
X431510Y290500D01*
X434500D01*
Y293490D01*
D02*
G37*
G36*
X425500D02*
Y290500D01*
X428489D01*
X428262Y291351D01*
X427801Y292149D01*
X427149Y292801D01*
X426351Y293262D01*
X425500Y293490D01*
D02*
G37*
G36*
X424500D02*
X423649Y293262D01*
X422851Y292801D01*
X422199Y292149D01*
X421738Y291351D01*
X421511Y290500D01*
X424500D01*
Y293490D01*
D02*
G37*
G36*
X415500D02*
Y290500D01*
X418490D01*
X418261Y291351D01*
X417801Y292149D01*
X417149Y292801D01*
X416351Y293262D01*
X415500Y293490D01*
D02*
G37*
G36*
X414500D02*
X413649Y293262D01*
X412851Y292801D01*
X412199Y292149D01*
X411738Y291351D01*
X411511Y290500D01*
X414500D01*
Y293490D01*
D02*
G37*
G36*
X385500D02*
Y290500D01*
X388490D01*
X388262Y291351D01*
X387801Y292149D01*
X387149Y292801D01*
X386351Y293262D01*
X385500Y293490D01*
D02*
G37*
G36*
X384500D02*
X383649Y293262D01*
X382851Y292801D01*
X382199Y292149D01*
X381738Y291351D01*
X381510Y290500D01*
X384500D01*
Y293490D01*
D02*
G37*
G36*
X375500D02*
Y290500D01*
X378489D01*
X378261Y291351D01*
X377801Y292149D01*
X377149Y292801D01*
X376351Y293262D01*
X375500Y293490D01*
D02*
G37*
G36*
X374500D02*
X373649Y293262D01*
X372851Y292801D01*
X372199Y292149D01*
X371739Y291351D01*
X371511Y290500D01*
X374500D01*
Y293490D01*
D02*
G37*
G36*
X438489Y289500D02*
X435500D01*
Y286510D01*
X436351Y286738D01*
X437149Y287199D01*
X437801Y287851D01*
X438262Y288649D01*
X438489Y289500D01*
D02*
G37*
G36*
X434500D02*
X431510D01*
X431739Y288649D01*
X432199Y287851D01*
X432851Y287199D01*
X433649Y286738D01*
X434500Y286510D01*
Y289500D01*
D02*
G37*
G36*
X428489D02*
X425500D01*
Y286510D01*
X426351Y286738D01*
X427149Y287199D01*
X427801Y287851D01*
X428262Y288649D01*
X428489Y289500D01*
D02*
G37*
G36*
X424500D02*
X421511D01*
X421738Y288649D01*
X422199Y287851D01*
X422851Y287199D01*
X423649Y286738D01*
X424500Y286510D01*
Y289500D01*
D02*
G37*
G36*
X418490D02*
X415500D01*
Y286510D01*
X416351Y286738D01*
X417149Y287199D01*
X417801Y287851D01*
X418261Y288649D01*
X418490Y289500D01*
D02*
G37*
G36*
X414500D02*
X411511D01*
X411738Y288649D01*
X412199Y287851D01*
X412851Y287199D01*
X413649Y286738D01*
X414500Y286510D01*
Y289500D01*
D02*
G37*
G36*
X388490D02*
X385500D01*
Y286510D01*
X386351Y286738D01*
X387149Y287199D01*
X387801Y287851D01*
X388262Y288649D01*
X388490Y289500D01*
D02*
G37*
G36*
X384500D02*
X381510D01*
X381738Y288649D01*
X382199Y287851D01*
X382851Y287199D01*
X383649Y286738D01*
X384500Y286510D01*
Y289500D01*
D02*
G37*
G36*
X378489D02*
X375500D01*
Y286510D01*
X376351Y286738D01*
X377149Y287199D01*
X377801Y287851D01*
X378261Y288649D01*
X378489Y289500D01*
D02*
G37*
G36*
X374500D02*
X371511D01*
X371739Y288649D01*
X372199Y287851D01*
X372851Y287199D01*
X373649Y286738D01*
X374500Y286510D01*
Y289500D01*
D02*
G37*
G36*
X380500Y283489D02*
Y280500D01*
X383489D01*
X383261Y281351D01*
X382801Y282149D01*
X382149Y282801D01*
X381351Y283261D01*
X380500Y283489D01*
D02*
G37*
G36*
X379500D02*
X378649Y283261D01*
X377851Y282801D01*
X377199Y282149D01*
X376739Y281351D01*
X376511Y280500D01*
X379500D01*
Y283489D01*
D02*
G37*
G36*
X360500D02*
Y280500D01*
X363490D01*
X363262Y281351D01*
X362801Y282149D01*
X362149Y282801D01*
X361351Y283261D01*
X360500Y283489D01*
D02*
G37*
G36*
X383489Y279500D02*
X380500D01*
Y276511D01*
X381351Y276739D01*
X382149Y277199D01*
X382801Y277851D01*
X383261Y278649D01*
X383489Y279500D01*
D02*
G37*
G36*
X379500D02*
X376511D01*
X376739Y278649D01*
X377199Y277851D01*
X377851Y277199D01*
X378649Y276739D01*
X379500Y276511D01*
Y279500D01*
D02*
G37*
G36*
X363490D02*
X360500D01*
Y276511D01*
X361351Y276739D01*
X362149Y277199D01*
X362801Y277851D01*
X363262Y278649D01*
X363490Y279500D01*
D02*
G37*
G36*
X402528Y278528D02*
X397500D01*
Y273500D01*
X402528D01*
Y278528D01*
D02*
G37*
G36*
X396500D02*
X391472D01*
Y273500D01*
X396500D01*
Y278528D01*
D02*
G37*
G36*
X425500Y273489D02*
Y270500D01*
X428489D01*
X428262Y271351D01*
X427801Y272149D01*
X427149Y272801D01*
X426351Y273261D01*
X425500Y273489D01*
D02*
G37*
G36*
X424500D02*
X423649Y273261D01*
X422851Y272801D01*
X422199Y272149D01*
X421738Y271351D01*
X421511Y270500D01*
X424500D01*
Y273489D01*
D02*
G37*
G36*
X415500D02*
Y270500D01*
X418490D01*
X418261Y271351D01*
X417801Y272149D01*
X417149Y272801D01*
X416351Y273261D01*
X415500Y273489D01*
D02*
G37*
G36*
X414500D02*
X413649Y273261D01*
X412851Y272801D01*
X412199Y272149D01*
X411738Y271351D01*
X411511Y270500D01*
X414500D01*
Y273489D01*
D02*
G37*
G36*
X385500D02*
Y270500D01*
X388490D01*
X388262Y271351D01*
X387801Y272149D01*
X387149Y272801D01*
X386351Y273261D01*
X385500Y273489D01*
D02*
G37*
G36*
X384500D02*
X383649Y273261D01*
X382851Y272801D01*
X382199Y272149D01*
X381738Y271351D01*
X381510Y270500D01*
X384500D01*
Y273489D01*
D02*
G37*
G36*
X375500D02*
Y270500D01*
X378489D01*
X378261Y271351D01*
X377801Y272149D01*
X377149Y272801D01*
X376351Y273261D01*
X375500Y273489D01*
D02*
G37*
G36*
X374500D02*
X373649Y273261D01*
X372851Y272801D01*
X372199Y272149D01*
X371739Y271351D01*
X371511Y270500D01*
X374500D01*
Y273489D01*
D02*
G37*
G36*
X402528Y272500D02*
X397500D01*
Y267472D01*
X402528D01*
Y272500D01*
D02*
G37*
G36*
X396500D02*
X391472D01*
Y267472D01*
X396500D01*
Y272500D01*
D02*
G37*
G36*
X428489Y269500D02*
X425500D01*
Y266511D01*
X426351Y266739D01*
X427149Y267199D01*
X427801Y267851D01*
X428262Y268649D01*
X428489Y269500D01*
D02*
G37*
G36*
X424500D02*
X421511D01*
X421738Y268649D01*
X422199Y267851D01*
X422851Y267199D01*
X423649Y266739D01*
X424500Y266511D01*
Y269500D01*
D02*
G37*
G36*
X418490D02*
X415500D01*
Y266511D01*
X416351Y266739D01*
X417149Y267199D01*
X417801Y267851D01*
X418261Y268649D01*
X418490Y269500D01*
D02*
G37*
G36*
X414500D02*
X411511D01*
X411738Y268649D01*
X412199Y267851D01*
X412851Y267199D01*
X413649Y266739D01*
X414500Y266511D01*
Y269500D01*
D02*
G37*
G36*
X388490D02*
X385500D01*
Y266511D01*
X386351Y266739D01*
X387149Y267199D01*
X387801Y267851D01*
X388262Y268649D01*
X388490Y269500D01*
D02*
G37*
G36*
X384500D02*
X381510D01*
X381738Y268649D01*
X382199Y267851D01*
X382851Y267199D01*
X383649Y266739D01*
X384500Y266511D01*
Y269500D01*
D02*
G37*
G36*
X378489D02*
X375500D01*
Y266511D01*
X376351Y266739D01*
X377149Y267199D01*
X377801Y267851D01*
X378261Y268649D01*
X378489Y269500D01*
D02*
G37*
G36*
X374500D02*
X371511D01*
X371739Y268649D01*
X372199Y267851D01*
X372851Y267199D01*
X373649Y266739D01*
X374500Y266511D01*
Y269500D01*
D02*
G37*
G36*
X429500Y263490D02*
X428649Y263262D01*
X427851Y262801D01*
X427199Y262149D01*
X426739Y261351D01*
X426510Y260500D01*
X429500D01*
Y263490D01*
D02*
G37*
G36*
X420500D02*
Y260500D01*
X423490D01*
X423261Y261351D01*
X422801Y262149D01*
X422149Y262801D01*
X421351Y263262D01*
X420500Y263490D01*
D02*
G37*
G36*
X419500D02*
X418649Y263262D01*
X417851Y262801D01*
X417199Y262149D01*
X416739Y261351D01*
X416510Y260500D01*
X419500D01*
Y263490D01*
D02*
G37*
G36*
X410500D02*
Y260500D01*
X413489D01*
X413262Y261351D01*
X412801Y262149D01*
X412149Y262801D01*
X411351Y263262D01*
X410500Y263490D01*
D02*
G37*
G36*
X409500D02*
X408649Y263262D01*
X407851Y262801D01*
X407199Y262149D01*
X406739Y261351D01*
X406510Y260500D01*
X409500D01*
Y263490D01*
D02*
G37*
G36*
X400500D02*
Y260500D01*
X403489D01*
X403262Y261351D01*
X402801Y262149D01*
X402149Y262801D01*
X401351Y263262D01*
X400500Y263490D01*
D02*
G37*
G36*
X399500D02*
X398649Y263262D01*
X397851Y262801D01*
X397199Y262149D01*
X396739Y261351D01*
X396511Y260500D01*
X399500D01*
Y263490D01*
D02*
G37*
G36*
X390500D02*
Y260500D01*
X393490D01*
X393262Y261351D01*
X392801Y262149D01*
X392149Y262801D01*
X391351Y263262D01*
X390500Y263490D01*
D02*
G37*
G36*
X389500D02*
X388649Y263262D01*
X387851Y262801D01*
X387199Y262149D01*
X386738Y261351D01*
X386510Y260500D01*
X389500D01*
Y263490D01*
D02*
G37*
G36*
X380500D02*
Y260500D01*
X383489D01*
X383261Y261351D01*
X382801Y262149D01*
X382149Y262801D01*
X381351Y263262D01*
X380500Y263490D01*
D02*
G37*
G36*
X379500D02*
X378649Y263262D01*
X377851Y262801D01*
X377199Y262149D01*
X376739Y261351D01*
X376511Y260500D01*
X379500D01*
Y263490D01*
D02*
G37*
G36*
X360500D02*
Y260500D01*
X363490D01*
X363262Y261351D01*
X362801Y262149D01*
X362149Y262801D01*
X361351Y263262D01*
X360500Y263490D01*
D02*
G37*
G36*
X429500Y259500D02*
X426510D01*
X426739Y258649D01*
X427199Y257851D01*
X427851Y257199D01*
X428649Y256738D01*
X429500Y256510D01*
Y259500D01*
D02*
G37*
G36*
X423490D02*
X420500D01*
Y256510D01*
X421351Y256738D01*
X422149Y257199D01*
X422801Y257851D01*
X423261Y258649D01*
X423490Y259500D01*
D02*
G37*
G36*
X419500D02*
X416510D01*
X416739Y258649D01*
X417199Y257851D01*
X417851Y257199D01*
X418649Y256738D01*
X419500Y256510D01*
Y259500D01*
D02*
G37*
G36*
X413489D02*
X410500D01*
Y256510D01*
X411351Y256738D01*
X412149Y257199D01*
X412801Y257851D01*
X413262Y258649D01*
X413489Y259500D01*
D02*
G37*
G36*
X409500D02*
X406510D01*
X406739Y258649D01*
X407199Y257851D01*
X407851Y257199D01*
X408649Y256738D01*
X409500Y256510D01*
Y259500D01*
D02*
G37*
G36*
X403489D02*
X400500D01*
Y256510D01*
X401351Y256738D01*
X402149Y257199D01*
X402801Y257851D01*
X403262Y258649D01*
X403489Y259500D01*
D02*
G37*
G36*
X399500D02*
X396511D01*
X396739Y258649D01*
X397199Y257851D01*
X397851Y257199D01*
X398649Y256738D01*
X399500Y256510D01*
Y259500D01*
D02*
G37*
G36*
X393490D02*
X390500D01*
Y256510D01*
X391351Y256738D01*
X392149Y257199D01*
X392801Y257851D01*
X393262Y258649D01*
X393490Y259500D01*
D02*
G37*
G36*
X389500D02*
X386510D01*
X386738Y258649D01*
X387199Y257851D01*
X387851Y257199D01*
X388649Y256738D01*
X389500Y256510D01*
Y259500D01*
D02*
G37*
G36*
X383489D02*
X380500D01*
Y256510D01*
X381351Y256738D01*
X382149Y257199D01*
X382801Y257851D01*
X383261Y258649D01*
X383489Y259500D01*
D02*
G37*
G36*
X379500D02*
X376511D01*
X376739Y258649D01*
X377199Y257851D01*
X377851Y257199D01*
X378649Y256738D01*
X379500Y256510D01*
Y259500D01*
D02*
G37*
G36*
X363490D02*
X360500D01*
Y256510D01*
X361351Y256738D01*
X362149Y257199D01*
X362801Y257851D01*
X363262Y258649D01*
X363490Y259500D01*
D02*
G37*
G36*
X425500Y253489D02*
Y250500D01*
X428489D01*
X428262Y251351D01*
X427801Y252149D01*
X427149Y252801D01*
X426351Y253261D01*
X425500Y253489D01*
D02*
G37*
G36*
X424500D02*
X423649Y253261D01*
X422851Y252801D01*
X422199Y252149D01*
X421738Y251351D01*
X421511Y250500D01*
X424500D01*
Y253489D01*
D02*
G37*
G36*
X415500D02*
Y250500D01*
X418490D01*
X418261Y251351D01*
X417801Y252149D01*
X417149Y252801D01*
X416351Y253261D01*
X415500Y253489D01*
D02*
G37*
G36*
X414500D02*
X413649Y253261D01*
X412851Y252801D01*
X412199Y252149D01*
X411738Y251351D01*
X411511Y250500D01*
X414500D01*
Y253489D01*
D02*
G37*
G36*
X405500D02*
Y250500D01*
X408490D01*
X408261Y251351D01*
X407801Y252149D01*
X407149Y252801D01*
X406351Y253261D01*
X405500Y253489D01*
D02*
G37*
G36*
X404500D02*
X403649Y253261D01*
X402851Y252801D01*
X402199Y252149D01*
X401739Y251351D01*
X401510Y250500D01*
X404500D01*
Y253489D01*
D02*
G37*
G36*
X395500D02*
Y250500D01*
X398489D01*
X398261Y251351D01*
X397801Y252149D01*
X397149Y252801D01*
X396351Y253261D01*
X395500Y253489D01*
D02*
G37*
G36*
X394500D02*
X393649Y253261D01*
X392851Y252801D01*
X392199Y252149D01*
X391739Y251351D01*
X391511Y250500D01*
X394500D01*
Y253489D01*
D02*
G37*
G36*
X385500D02*
Y250500D01*
X388490D01*
X388262Y251351D01*
X387801Y252149D01*
X387149Y252801D01*
X386351Y253261D01*
X385500Y253489D01*
D02*
G37*
G36*
X384500D02*
X383649Y253261D01*
X382851Y252801D01*
X382199Y252149D01*
X381738Y251351D01*
X381510Y250500D01*
X384500D01*
Y253489D01*
D02*
G37*
G36*
X375500D02*
Y250500D01*
X378489D01*
X378261Y251351D01*
X377801Y252149D01*
X377149Y252801D01*
X376351Y253261D01*
X375500Y253489D01*
D02*
G37*
G36*
X374500D02*
X373649Y253261D01*
X372851Y252801D01*
X372199Y252149D01*
X371739Y251351D01*
X371511Y250500D01*
X374500D01*
Y253489D01*
D02*
G37*
G36*
X428489Y249500D02*
X425500D01*
Y246511D01*
X426351Y246739D01*
X427149Y247199D01*
X427801Y247851D01*
X428262Y248649D01*
X428489Y249500D01*
D02*
G37*
G36*
X424500D02*
X421511D01*
X421738Y248649D01*
X422199Y247851D01*
X422851Y247199D01*
X423649Y246739D01*
X424500Y246511D01*
Y249500D01*
D02*
G37*
G36*
X418490D02*
X415500D01*
Y246511D01*
X416351Y246739D01*
X417149Y247199D01*
X417801Y247851D01*
X418261Y248649D01*
X418490Y249500D01*
D02*
G37*
G36*
X414500D02*
X411511D01*
X411738Y248649D01*
X412199Y247851D01*
X412851Y247199D01*
X413649Y246739D01*
X414500Y246511D01*
Y249500D01*
D02*
G37*
G36*
X378489D02*
X375500D01*
Y246511D01*
X376351Y246739D01*
X377149Y247199D01*
X377801Y247851D01*
X378261Y248649D01*
X378489Y249500D01*
D02*
G37*
G36*
X374500D02*
X371511D01*
X371739Y248649D01*
X372199Y247851D01*
X372851Y247199D01*
X373649Y246739D01*
X374500Y246511D01*
Y249500D01*
D02*
G37*
G36*
X408490D02*
X401510D01*
X401739Y248649D01*
X402199Y247851D01*
X402851Y247199D01*
X403194Y247001D01*
X403355Y246334D01*
X403312Y246268D01*
X401850D01*
Y243602D01*
X410150D01*
Y246268D01*
X406688D01*
X406645Y246334D01*
X406806Y247001D01*
X407149Y247199D01*
X407801Y247851D01*
X408261Y248649D01*
X408490Y249500D01*
D02*
G37*
G36*
X398489D02*
X391511D01*
X391739Y248649D01*
X392199Y247851D01*
X392851Y247199D01*
X393194Y247001D01*
X393355Y246334D01*
X393312Y246268D01*
X389850D01*
Y243602D01*
X398150D01*
Y246268D01*
X396688D01*
X396645Y246334D01*
X396806Y247001D01*
X397149Y247199D01*
X397801Y247851D01*
X398261Y248649D01*
X398489Y249500D01*
D02*
G37*
G36*
X388490D02*
X381510D01*
X381738Y248649D01*
X382199Y247851D01*
X382851Y247199D01*
X383194Y247001D01*
X383355Y246334D01*
X383312Y246268D01*
X378709D01*
Y243602D01*
X387008D01*
Y246268D01*
X386688D01*
X386645Y246334D01*
X386806Y247001D01*
X387149Y247199D01*
X387801Y247851D01*
X388262Y248649D01*
X388490Y249500D01*
D02*
G37*
G36*
X450500Y243490D02*
Y240500D01*
X453489D01*
X453262Y241351D01*
X452801Y242149D01*
X452149Y242801D01*
X451351Y243262D01*
X450500Y243490D01*
D02*
G37*
G36*
X449500D02*
X448649Y243262D01*
X447851Y242801D01*
X447199Y242149D01*
X446738Y241351D01*
X446511Y240500D01*
X449500D01*
Y243490D01*
D02*
G37*
G36*
X440500D02*
Y240500D01*
X443490D01*
X443261Y241351D01*
X442801Y242149D01*
X442149Y242801D01*
X441351Y243262D01*
X440500Y243490D01*
D02*
G37*
G36*
X439500D02*
X438649Y243262D01*
X437851Y242801D01*
X437199Y242149D01*
X436738Y241351D01*
X436511Y240500D01*
X439500D01*
Y243490D01*
D02*
G37*
G36*
X430500D02*
Y240500D01*
X433490D01*
X433261Y241351D01*
X432801Y242149D01*
X432149Y242801D01*
X431351Y243262D01*
X430500Y243490D01*
D02*
G37*
G36*
X429500D02*
X428649Y243262D01*
X427851Y242801D01*
X427199Y242149D01*
X426739Y241351D01*
X426510Y240500D01*
X429500D01*
Y243490D01*
D02*
G37*
G36*
X420500D02*
Y240500D01*
X423490D01*
X423261Y241351D01*
X422801Y242149D01*
X422149Y242801D01*
X421351Y243262D01*
X420500Y243490D01*
D02*
G37*
G36*
X419500D02*
X418649Y243262D01*
X417851Y242801D01*
X417199Y242149D01*
X416739Y241351D01*
X416510Y240500D01*
X419500D01*
Y243490D01*
D02*
G37*
G36*
X360500D02*
Y240500D01*
X363490D01*
X363262Y241351D01*
X362801Y242149D01*
X362149Y242801D01*
X361351Y243262D01*
X360500Y243490D01*
D02*
G37*
G36*
X410150Y242602D02*
X406500D01*
Y239937D01*
X410150D01*
Y242602D01*
D02*
G37*
G36*
X405500D02*
X401850D01*
Y239937D01*
X405500D01*
Y242602D01*
D02*
G37*
G36*
X398150D02*
X394500D01*
Y239937D01*
X398150D01*
Y242602D01*
D02*
G37*
G36*
X393500D02*
X389850D01*
Y239937D01*
X393500D01*
Y242602D01*
D02*
G37*
G36*
X387008D02*
X383358D01*
Y239937D01*
X387008D01*
Y242602D01*
D02*
G37*
G36*
X382358D02*
X378709D01*
Y239937D01*
X382358D01*
Y242602D01*
D02*
G37*
G36*
X453489Y239500D02*
X450500D01*
Y236510D01*
X451351Y236738D01*
X452149Y237199D01*
X452801Y237851D01*
X453262Y238649D01*
X453489Y239500D01*
D02*
G37*
G36*
X449500D02*
X446511D01*
X446738Y238649D01*
X447199Y237851D01*
X447851Y237199D01*
X448649Y236738D01*
X449500Y236510D01*
Y239500D01*
D02*
G37*
G36*
X443490D02*
X440500D01*
Y236510D01*
X441351Y236738D01*
X442149Y237199D01*
X442801Y237851D01*
X443261Y238649D01*
X443490Y239500D01*
D02*
G37*
G36*
X439500D02*
X436511D01*
X436738Y238649D01*
X437199Y237851D01*
X437851Y237199D01*
X438649Y236738D01*
X439500Y236510D01*
Y239500D01*
D02*
G37*
G36*
X433490D02*
X430500D01*
Y236510D01*
X431351Y236738D01*
X432149Y237199D01*
X432801Y237851D01*
X433261Y238649D01*
X433490Y239500D01*
D02*
G37*
G36*
X429500D02*
X426510D01*
X426739Y238649D01*
X427199Y237851D01*
X427851Y237199D01*
X428649Y236738D01*
X429500Y236510D01*
Y239500D01*
D02*
G37*
G36*
X423490D02*
X420500D01*
Y236510D01*
X421351Y236738D01*
X422149Y237199D01*
X422801Y237851D01*
X423261Y238649D01*
X423490Y239500D01*
D02*
G37*
G36*
X419500D02*
X416510D01*
X416739Y238649D01*
X417199Y237851D01*
X417851Y237199D01*
X418649Y236738D01*
X419500Y236510D01*
Y239500D01*
D02*
G37*
G36*
X363490D02*
X360500D01*
Y236510D01*
X361351Y236738D01*
X362149Y237199D01*
X362801Y237851D01*
X363262Y238649D01*
X363490Y239500D01*
D02*
G37*
G36*
X203000Y333500D02*
X197500D01*
Y330500D01*
X203000D01*
Y333500D01*
D02*
G37*
G36*
X196500D02*
X191000D01*
Y330500D01*
X196500D01*
Y333500D01*
D02*
G37*
G36*
X203000Y329500D02*
X197500D01*
Y326500D01*
X203000D01*
Y329500D01*
D02*
G37*
G36*
X196500D02*
X191000D01*
Y326500D01*
X196500D01*
Y329500D01*
D02*
G37*
G36*
X153500Y333489D02*
X152649Y333261D01*
X151851Y332801D01*
X151199Y332149D01*
X150766Y331399D01*
X150500Y331358D01*
X150234Y331399D01*
X149801Y332149D01*
X149149Y332801D01*
X148351Y333261D01*
X147500Y333489D01*
Y330000D01*
Y326511D01*
X148351Y326739D01*
X149149Y327199D01*
X149801Y327851D01*
X150234Y328601D01*
X150500Y328642D01*
X150766Y328601D01*
X151199Y327851D01*
X151851Y327199D01*
X152649Y326739D01*
X153500Y326511D01*
Y330000D01*
Y333489D01*
D02*
G37*
G36*
X154500D02*
Y330500D01*
X157490D01*
X157262Y331351D01*
X156801Y332149D01*
X156149Y332801D01*
X155351Y333261D01*
X154500Y333489D01*
D02*
G37*
G36*
X146500D02*
X145649Y333261D01*
X144851Y332801D01*
X144199Y332149D01*
X143738Y331351D01*
X143510Y330500D01*
X146500D01*
Y333489D01*
D02*
G37*
G36*
X139500D02*
Y330500D01*
X142490D01*
X142262Y331351D01*
X141801Y332149D01*
X141149Y332801D01*
X140351Y333261D01*
X139500Y333489D01*
D02*
G37*
G36*
X138500D02*
X137649Y333261D01*
X136851Y332801D01*
X136199Y332149D01*
X135739Y331351D01*
X135511Y330500D01*
X138500D01*
Y333489D01*
D02*
G37*
G36*
X131500D02*
Y330500D01*
X134490D01*
X134262Y331351D01*
X133801Y332149D01*
X133149Y332801D01*
X132351Y333261D01*
X131500Y333489D01*
D02*
G37*
G36*
X130500D02*
X129649Y333261D01*
X128851Y332801D01*
X128199Y332149D01*
X127738Y331351D01*
X127510Y330500D01*
X130500D01*
Y333489D01*
D02*
G37*
G36*
X123500D02*
Y330500D01*
X126489D01*
X126261Y331351D01*
X125801Y332149D01*
X125149Y332801D01*
X124351Y333261D01*
X123500Y333489D01*
D02*
G37*
G36*
X122500D02*
X121649Y333261D01*
X120851Y332801D01*
X120199Y332149D01*
X119738Y331351D01*
X119510Y330500D01*
X122500D01*
Y333489D01*
D02*
G37*
G36*
X157490Y329500D02*
X154500D01*
Y326511D01*
X155351Y326739D01*
X156149Y327199D01*
X156801Y327851D01*
X157262Y328649D01*
X157490Y329500D01*
D02*
G37*
G36*
X146500D02*
X143510D01*
X143738Y328649D01*
X144199Y327851D01*
X144851Y327199D01*
X145649Y326739D01*
X146500Y326511D01*
Y329500D01*
D02*
G37*
G36*
X142490D02*
X139500D01*
Y326511D01*
X140351Y326739D01*
X141149Y327199D01*
X141801Y327851D01*
X142262Y328649D01*
X142490Y329500D01*
D02*
G37*
G36*
X138500D02*
X135511D01*
X135739Y328649D01*
X136199Y327851D01*
X136851Y327199D01*
X137649Y326739D01*
X138500Y326511D01*
Y329500D01*
D02*
G37*
G36*
X134490D02*
X131500D01*
Y326511D01*
X132351Y326739D01*
X133149Y327199D01*
X133801Y327851D01*
X134262Y328649D01*
X134490Y329500D01*
D02*
G37*
G36*
X130500D02*
X127510D01*
X127738Y328649D01*
X128199Y327851D01*
X128851Y327199D01*
X129649Y326739D01*
X130500Y326511D01*
Y329500D01*
D02*
G37*
G36*
X126489D02*
X123500D01*
Y326511D01*
X124351Y326739D01*
X125149Y327199D01*
X125801Y327851D01*
X126261Y328649D01*
X126489Y329500D01*
D02*
G37*
G36*
X122500D02*
X119510D01*
X119738Y328649D01*
X120199Y327851D01*
X120851Y327199D01*
X121649Y326739D01*
X122500Y326511D01*
Y329500D01*
D02*
G37*
G36*
X170420Y302532D02*
X166869D01*
Y299374D01*
X170420D01*
Y302532D01*
D02*
G37*
G36*
X165869D02*
X162318D01*
Y299374D01*
X165869D01*
Y302532D01*
D02*
G37*
G36*
X147051D02*
X143500D01*
Y299374D01*
X147051D01*
Y302532D01*
D02*
G37*
G36*
X142500D02*
X138949D01*
Y299374D01*
X142500D01*
Y302532D01*
D02*
G37*
G36*
X135028Y299874D02*
X130197D01*
Y297307D01*
X135028D01*
Y299874D01*
D02*
G37*
G36*
X129197D02*
X124366D01*
Y297307D01*
X129197D01*
Y299874D01*
D02*
G37*
G36*
X170420Y298374D02*
X166869D01*
Y295216D01*
X170420D01*
Y298374D01*
D02*
G37*
G36*
X165869D02*
X162318D01*
Y295216D01*
X165869D01*
Y298374D01*
D02*
G37*
G36*
X147051D02*
X143500D01*
Y295216D01*
X147051D01*
Y298374D01*
D02*
G37*
G36*
X142500D02*
X138949D01*
Y295216D01*
X142500D01*
Y298374D01*
D02*
G37*
G36*
X129197Y296307D02*
X124366D01*
Y293740D01*
X129197D01*
Y296307D01*
D02*
G37*
G36*
X177425Y294657D02*
X171488D01*
Y292721D01*
X170420D01*
Y294657D01*
X162318D01*
Y292721D01*
X161250D01*
Y294657D01*
X155313D01*
Y287343D01*
X161250D01*
Y289279D01*
X162318D01*
Y287343D01*
X170420D01*
Y289279D01*
X171488D01*
Y287343D01*
X177425D01*
Y294657D01*
D02*
G37*
G36*
X118500Y291490D02*
Y288500D01*
X121490D01*
X121262Y289351D01*
X120801Y290149D01*
X120149Y290801D01*
X119351Y291262D01*
X118500Y291490D01*
D02*
G37*
G36*
X117500D02*
X116649Y291262D01*
X115851Y290801D01*
X115199Y290149D01*
X114739Y289351D01*
X114511Y288500D01*
X117500D01*
Y291490D01*
D02*
G37*
G36*
X135028Y296307D02*
X130197D01*
Y293740D01*
X132633D01*
Y288260D01*
X130197D01*
Y285693D01*
X135028D01*
Y288032D01*
X138767D01*
X138949Y287607D01*
Y287343D01*
X147051D01*
Y289279D01*
X148226D01*
Y287343D01*
X154163D01*
Y294657D01*
X148226D01*
Y292721D01*
X147051D01*
Y294657D01*
X138949D01*
Y294393D01*
X138767Y293969D01*
X135028D01*
Y296307D01*
D02*
G37*
G36*
X129197Y288260D02*
X124366D01*
Y285693D01*
X129197D01*
Y288260D01*
D02*
G37*
G36*
X135028Y284693D02*
X130197D01*
Y282126D01*
X135028D01*
Y284693D01*
D02*
G37*
G36*
X129197D02*
X124366D01*
Y282126D01*
X129197D01*
Y284693D01*
D02*
G37*
G36*
X121490Y287500D02*
X114511D01*
X114739Y286649D01*
X115199Y285851D01*
X115851Y285199D01*
X116601Y284766D01*
X116642Y284500D01*
X116601Y284234D01*
X115851Y283801D01*
X115199Y283149D01*
X114739Y282351D01*
X114511Y281500D01*
X121490D01*
X121262Y282351D01*
X120801Y283149D01*
X120149Y283801D01*
X119399Y284234D01*
X119358Y284500D01*
X119399Y284766D01*
X120149Y285199D01*
X120801Y285851D01*
X121262Y286649D01*
X121490Y287500D01*
D02*
G37*
G36*
X199657Y285906D02*
X196697D01*
Y279500D01*
X199657D01*
Y285906D01*
D02*
G37*
G36*
X179657D02*
X176697D01*
Y279500D01*
X179657D01*
Y285906D01*
D02*
G37*
G36*
X195697D02*
X192736D01*
Y279500D01*
X195697D01*
Y285906D01*
D02*
G37*
G36*
X175697D02*
X172736D01*
Y279500D01*
X175697D01*
Y285906D01*
D02*
G37*
G36*
X131500Y277489D02*
X130649Y277261D01*
X129851Y276801D01*
X129199Y276149D01*
X128766Y275399D01*
X128500Y275358D01*
X128234Y275399D01*
X127801Y276149D01*
X127149Y276801D01*
X126351Y277261D01*
X125500Y277489D01*
Y274000D01*
Y270511D01*
X126351Y270739D01*
X127149Y271199D01*
X127801Y271851D01*
X128234Y272601D01*
X128500Y272642D01*
X128766Y272601D01*
X129199Y271851D01*
X129851Y271199D01*
X130649Y270739D01*
X131500Y270511D01*
Y274000D01*
Y277489D01*
D02*
G37*
G36*
X159500D02*
Y274500D01*
X162489D01*
X162261Y275351D01*
X161801Y276149D01*
X161149Y276801D01*
X160351Y277261D01*
X159500Y277489D01*
D02*
G37*
G36*
X158500D02*
X157649Y277261D01*
X156851Y276801D01*
X156199Y276149D01*
X155738Y275351D01*
X155510Y274500D01*
X158500D01*
Y277489D01*
D02*
G37*
G36*
X132500D02*
Y274500D01*
X135489D01*
X135261Y275351D01*
X134801Y276149D01*
X134149Y276801D01*
X133351Y277261D01*
X132500Y277489D01*
D02*
G37*
G36*
X199657Y278500D02*
X196697D01*
Y272094D01*
X199657D01*
Y278500D01*
D02*
G37*
G36*
X195697D02*
X192736D01*
Y272094D01*
X195697D01*
Y278500D01*
D02*
G37*
G36*
X184512Y294657D02*
X178575D01*
Y287343D01*
X184279D01*
Y285906D01*
X182736D01*
Y272094D01*
X189657D01*
Y285906D01*
X187721D01*
Y289000D01*
X187590Y289658D01*
X187217Y290217D01*
X185217Y292217D01*
X184658Y292590D01*
X184512Y292619D01*
Y294657D01*
D02*
G37*
G36*
X179657Y278500D02*
X176697D01*
Y272094D01*
X179657D01*
Y278500D01*
D02*
G37*
G36*
X175697D02*
X172736D01*
Y272094D01*
X175697D01*
Y278500D01*
D02*
G37*
G36*
X162489Y273500D02*
X159500D01*
Y270511D01*
X160351Y270739D01*
X161149Y271199D01*
X161801Y271851D01*
X162261Y272649D01*
X162489Y273500D01*
D02*
G37*
G36*
X158500D02*
X155510D01*
X155738Y272649D01*
X156199Y271851D01*
X156851Y271199D01*
X157649Y270739D01*
X158500Y270511D01*
Y273500D01*
D02*
G37*
G36*
X135489D02*
X132500D01*
Y270511D01*
X133351Y270739D01*
X134149Y271199D01*
X134801Y271851D01*
X135261Y272649D01*
X135489Y273500D01*
D02*
G37*
G36*
X121490Y280500D02*
X114511D01*
X114739Y279649D01*
X115199Y278851D01*
X115851Y278199D01*
X116601Y277766D01*
X116642Y277500D01*
X116601Y277234D01*
X115851Y276801D01*
X115199Y276149D01*
X114739Y275351D01*
X114511Y274500D01*
X118000D01*
Y274000D01*
X118500D01*
Y270511D01*
X119351Y270739D01*
X120149Y271199D01*
X120801Y271851D01*
X121234Y272601D01*
X121500Y272642D01*
X121766Y272601D01*
X122199Y271851D01*
X122851Y271199D01*
X123649Y270739D01*
X124500Y270511D01*
Y274000D01*
Y277489D01*
X123649Y277261D01*
X122851Y276801D01*
X122199Y276149D01*
X121766Y275399D01*
X121500Y275358D01*
X121234Y275399D01*
X120801Y276149D01*
X120149Y276801D01*
X119399Y277234D01*
X119358Y277500D01*
X119399Y277766D01*
X120149Y278199D01*
X120801Y278851D01*
X121262Y279649D01*
X121490Y280500D01*
D02*
G37*
G36*
X117500Y273500D02*
X114511D01*
X114739Y272649D01*
X115199Y271851D01*
X115851Y271199D01*
X116649Y270739D01*
X117500Y270511D01*
Y273500D01*
D02*
G37*
%LPD*%
D11*
X318543Y410000D02*
Y420000D01*
X318543Y410000D02*
X318543Y410000D01*
D33*
X176197Y184512D02*
D03*
X186197D02*
D03*
X196197D02*
D03*
X226000D02*
D03*
X236000D02*
D03*
X246000D02*
D03*
X256000D02*
D03*
X266000D02*
D03*
X276000D02*
D03*
X286000D02*
D03*
X296000D02*
D03*
X176197Y279000D02*
D03*
X186197D02*
D03*
X196197D02*
D03*
X226000D02*
D03*
X236000D02*
D03*
X246000D02*
D03*
X256000D02*
D03*
X266000D02*
D03*
X276000D02*
D03*
X286000D02*
D03*
X296000D02*
D03*
D34*
X311457Y420000D02*
D03*
X318543D02*
D03*
X323457Y292000D02*
D03*
X330543D02*
D03*
X323457Y283000D02*
D03*
X330543D02*
D03*
X453543Y296000D02*
D03*
X446457D02*
D03*
X158282Y291000D02*
D03*
X151195D02*
D03*
X181543D02*
D03*
X174457D02*
D03*
X148543Y360000D02*
D03*
X141457D02*
D03*
X169457Y390000D02*
D03*
X176543D02*
D03*
X169457Y420000D02*
D03*
X176543D02*
D03*
X169457Y450000D02*
D03*
X176543D02*
D03*
Y410000D02*
D03*
X169457D02*
D03*
X176543Y440000D02*
D03*
X169457D02*
D03*
X176543Y360000D02*
D03*
X169457D02*
D03*
X176543Y350000D02*
D03*
X169457D02*
D03*
X176543Y340000D02*
D03*
X169457D02*
D03*
X409543Y371000D02*
D03*
X402457D02*
D03*
X318543Y380000D02*
D03*
X311457D02*
D03*
X318543Y390000D02*
D03*
X311457D02*
D03*
X318543Y400000D02*
D03*
X311457D02*
D03*
X318543Y410000D02*
D03*
X311457D02*
D03*
X318543Y450000D02*
D03*
X311457D02*
D03*
D35*
X375000Y415677D02*
D03*
Y390323D02*
D03*
X412000Y414677D02*
D03*
Y389323D02*
D03*
X450000Y414677D02*
D03*
Y389323D02*
D03*
D36*
X129697Y296807D02*
D03*
Y285193D02*
D03*
D37*
X135700Y291000D02*
D03*
D38*
X317000Y181898D02*
D03*
Y194102D02*
D03*
X406000Y230898D02*
D03*
Y243102D02*
D03*
X382858Y230898D02*
D03*
Y243102D02*
D03*
X394000Y230898D02*
D03*
Y243102D02*
D03*
D39*
X412000Y442283D02*
D03*
Y460000D02*
D03*
X389000Y459858D02*
D03*
Y442142D02*
D03*
X397000Y290717D02*
D03*
Y273000D02*
D03*
D40*
X444000Y265000D02*
D03*
Y216400D02*
D03*
D41*
X143000Y298874D02*
D03*
Y291000D02*
D03*
X166369Y298874D02*
D03*
Y291000D02*
D03*
D42*
X449498Y315000D02*
D03*
Y320000D02*
D03*
Y325000D02*
D03*
Y330000D02*
D03*
Y335000D02*
D03*
Y340000D02*
D03*
Y345000D02*
D03*
D43*
X412766Y330000D02*
D03*
D44*
X424000Y358457D02*
D03*
Y365543D02*
D03*
D45*
X161000Y446237D02*
X162172Y445065D01*
Y450000D02*
X169457D01*
X162172Y445065D02*
X246935D01*
X161000Y448828D02*
X162172Y450000D01*
X161000Y446237D02*
Y448828D01*
X158172Y440000D02*
X169457D01*
X157000Y441172D02*
X158172Y440000D01*
X157000Y453828D02*
X158172Y455000D01*
X253000D01*
X157000Y441172D02*
Y453828D01*
X306000Y194102D02*
X317000D01*
X298102D02*
X306000D01*
Y181000D02*
Y194102D01*
X256000Y184512D02*
Y197000D01*
X226000Y176000D02*
X234828D01*
X221000D02*
X226000D01*
Y184512D01*
X234828Y176000D02*
X236000Y177172D01*
Y184512D01*
X217000Y180000D02*
X221000Y176000D01*
X205000Y180000D02*
X217000D01*
X196000Y176000D02*
X201000D01*
X186000D02*
X196000D01*
X196197Y176197D02*
Y184512D01*
X196000Y176000D02*
X196197Y176197D01*
X177368Y176000D02*
X186000D01*
X186197Y176197D01*
Y184512D01*
X201000Y176000D02*
X205000Y180000D01*
X176197Y177172D02*
Y184512D01*
Y177172D02*
X177368Y176000D01*
X296000Y279000D02*
Y291000D01*
X246000Y279000D02*
Y292000D01*
X236000Y279000D02*
Y292000D01*
X226000Y279000D02*
Y292000D01*
X330543D02*
Y301731D01*
X332000Y303188D01*
Y304000D01*
X340000Y283000D02*
Y383000D01*
Y221000D02*
Y283000D01*
X281000Y319000D02*
X318000D01*
X164000Y327000D02*
X181000D01*
X212000Y231000D02*
Y296000D01*
X181000Y327000D02*
X212000Y296000D01*
X143000Y291000D02*
X143000Y291000D01*
X121000Y400000D02*
X139000D01*
X121000Y390000D02*
X134000D01*
X112000D02*
X121000D01*
Y432000D02*
X142000D01*
X121000Y442000D02*
X140000D01*
X266000Y279000D02*
Y300000D01*
X250000Y316000D02*
X266000Y300000D01*
X250000Y316000D02*
Y335000D01*
X256000Y319000D02*
Y436000D01*
X276000Y279000D02*
Y299000D01*
X256000Y319000D02*
X276000Y299000D01*
X176543Y420000D02*
X197000D01*
X176543Y410000D02*
X197000D01*
X164000D02*
X169457D01*
X162000Y420000D02*
X169457D01*
X158282Y291000D02*
X158282Y291000D01*
X174260Y290803D02*
X174457Y291000D01*
X181543D02*
X181543Y291000D01*
X176543Y450000D02*
X197000D01*
X287000Y340000D02*
Y350000D01*
X318543Y410000D02*
X329000D01*
X296000Y192000D02*
X298102Y194102D01*
X296000Y184512D02*
Y192000D01*
X176000Y279197D02*
X176197Y279000D01*
X111000Y391000D02*
Y469000D01*
Y391000D02*
X112000Y390000D01*
X111000Y469000D02*
X120000Y478000D01*
X313000D02*
X318543Y472457D01*
Y450000D02*
Y472457D01*
X120000Y478000D02*
X313000D01*
X253000Y455000D02*
X262000Y446000D01*
X246935Y445065D02*
X256000Y436000D01*
X262000Y321000D02*
Y446000D01*
X141457Y360000D02*
Y382543D01*
X134000Y390000D02*
X141457Y382543D01*
X148543Y360000D02*
X164000D01*
X169457D01*
X220000Y365000D02*
X250000Y335000D01*
X165000Y365000D02*
X220000D01*
X164000Y364000D02*
X165000Y365000D01*
X164000Y360000D02*
Y364000D01*
X163000Y386000D02*
X164000Y385000D01*
X240000D02*
X248000Y377000D01*
X164000Y385000D02*
X240000D01*
X333000Y390000D02*
X340000Y383000D01*
X318000Y319000D02*
X333000Y304000D01*
X262000Y321000D02*
X286000Y297000D01*
X163000Y386000D02*
Y389000D01*
X164000Y390000D01*
X169457D01*
X340000Y221000D02*
X359000Y202000D01*
Y193000D02*
Y202000D01*
X285000Y221000D02*
X340000D01*
X349000Y193000D02*
Y201000D01*
X334000Y216000D02*
X349000Y201000D01*
X283000Y216000D02*
X334000D01*
X339000Y193000D02*
Y200000D01*
X328000Y211000D02*
X339000Y200000D01*
X281000Y211000D02*
X328000D01*
X318543Y380000D02*
X329000D01*
X318543Y390000D02*
X333000D01*
X286000Y279000D02*
Y297000D01*
X318543Y400000D02*
X329000D01*
X161000Y330000D02*
X164000Y327000D01*
X212000Y231000D02*
X246000Y197000D01*
X164000Y340000D02*
X169457D01*
X161000Y337000D02*
X164000Y340000D01*
X158000Y350000D02*
X169457D01*
X246000Y184512D02*
Y197000D01*
X161000Y330000D02*
Y337000D01*
X142000Y432000D02*
X164000Y410000D01*
X140000Y442000D02*
X162000Y420000D01*
X139000Y400000D02*
X169000Y370000D01*
X197000D01*
X246000Y253000D02*
X283000Y216000D01*
X246000Y253000D02*
Y279000D01*
X256000Y250000D02*
X285000Y221000D01*
X256000Y250000D02*
Y279000D01*
X236000Y256000D02*
Y279000D01*
Y256000D02*
X281000Y211000D01*
X176543Y340000D02*
X197000D01*
X176543Y350000D02*
X197000D01*
X176543Y360000D02*
X197000D01*
X176543Y390000D02*
X197000D01*
X176543Y440000D02*
X197000D01*
X287000Y410000D02*
X311457D01*
X287000Y400000D02*
X311457D01*
X287000Y390000D02*
X311457D01*
X287000Y380000D02*
X311457D01*
D46*
X315000Y286000D02*
Y292000D01*
X318000Y283000D02*
X323457D01*
X315000Y286000D02*
X318000Y283000D01*
X315000Y292000D02*
X323457D01*
X331543Y283000D02*
X340000D01*
X287000Y420000D02*
X311457D01*
D47*
X447000Y428000D02*
X463243D01*
X450000Y414677D02*
Y425000D01*
X412000Y414677D02*
Y428000D01*
X375000Y415677D02*
Y425657D01*
X186000Y279197D02*
X186197Y279000D01*
X329000Y174000D02*
X381000D01*
X317000D02*
X329000D01*
Y193000D01*
X412000Y428000D02*
Y442283D01*
X397000Y290717D02*
X397142Y290575D01*
Y283858D02*
Y290575D01*
Y283858D02*
X399000Y282000D01*
X412000Y460000D02*
X412172Y460172D01*
Y467414D01*
X413757Y469000D01*
X429000D01*
X389000Y459858D02*
Y480000D01*
X287000Y450000D02*
Y460000D01*
Y450000D02*
X311457D01*
X317000Y174000D02*
Y181898D01*
X286000Y174000D02*
X317000D01*
X277757D02*
X286000D01*
Y184512D01*
X276000Y175757D02*
Y184512D01*
Y175757D02*
X277757Y174000D01*
X381000D02*
X394000Y187000D01*
X449498Y320000D02*
X463243D01*
X465000Y321757D02*
Y426243D01*
X463243Y320000D02*
X465000Y321757D01*
X463243Y428000D02*
X465000Y426243D01*
X449498Y340000D02*
X457243D01*
X459000Y341757D01*
Y368000D01*
X456000Y371000D02*
X459000Y368000D01*
X399000Y282000D02*
X458250D01*
X461000Y296000D02*
Y312000D01*
X458000Y315000D02*
X461000Y312000D01*
X449498Y315000D02*
X458000D01*
X453543Y296000D02*
X461000D01*
X445988Y297158D02*
X446457Y296689D01*
Y296000D02*
Y296689D01*
X440842Y297158D02*
X445988D01*
X439000Y299000D02*
X440842Y297158D01*
X439000Y299000D02*
Y323000D01*
X441000Y325000D01*
X449498D01*
X412766Y330000D02*
X449498D01*
X424000Y341234D02*
Y358457D01*
Y371000D02*
X456000D01*
X409543D02*
X424000D01*
Y365543D02*
Y371000D01*
X390000D02*
X402457D01*
X354000D02*
Y432000D01*
Y234283D02*
Y371000D01*
X368000D01*
X444000Y265000D02*
X452750Y273750D01*
X382858Y243102D02*
X383000Y243244D01*
X389000Y480000D02*
X395000Y486000D01*
X424000D01*
X440449Y469551D01*
X455000D01*
X354000Y234283D02*
X364142Y224142D01*
X336000Y450000D02*
X354000Y432000D01*
X318543Y450000D02*
X336000D01*
X364142Y224142D02*
X382858D01*
X394000Y187000D02*
Y224000D01*
X388000Y428000D02*
X412000D01*
X377343D02*
X388000D01*
X389000Y429000D02*
Y442142D01*
X388000Y428000D02*
X389000Y429000D01*
X406000Y224000D02*
X409000D01*
X394000D02*
X406000D01*
Y230898D01*
X383000Y224000D02*
X394000D01*
Y230898D01*
X382858Y224142D02*
X383000Y224000D01*
X382858Y224142D02*
Y230898D01*
X409000Y224000D02*
X414000Y219000D01*
Y209000D02*
X424001Y198999D01*
X414000Y209000D02*
Y219000D01*
X424001Y198999D02*
X425000Y198000D01*
X444000Y199757D02*
Y216400D01*
X442243Y198000D02*
X444000Y199757D01*
X425000Y198000D02*
X442243D01*
X458250Y282000D02*
X461000Y284750D01*
X444000Y265000D02*
Y280000D01*
X461000Y284750D02*
Y296000D01*
X447000Y428000D02*
X450000Y425000D01*
X412000Y428000D02*
X447000D01*
X375000Y425657D02*
X377343Y428000D01*
X429000Y469000D02*
X444000Y454000D01*
X455000D01*
D48*
X143000Y291000D02*
X151195D01*
X135700D02*
X143000D01*
X158282D02*
X174457D01*
X181543D02*
X184000D01*
X186000Y289000D01*
Y279197D02*
Y289000D01*
D49*
X379000Y193000D02*
D03*
X369000D02*
D03*
X339000D02*
D03*
X329000D02*
D03*
X349000D02*
D03*
X359000D02*
D03*
X121000Y432000D02*
D03*
Y452000D02*
D03*
Y442000D02*
D03*
Y390000D02*
D03*
Y410000D02*
D03*
Y400000D02*
D03*
D50*
X197000Y470000D02*
D03*
Y460000D02*
D03*
Y430000D02*
D03*
Y400000D02*
D03*
Y380000D02*
D03*
Y330000D02*
D03*
X287000Y470000D02*
D03*
Y420000D02*
D03*
Y370000D02*
D03*
Y330000D02*
D03*
D51*
X197000Y450000D02*
D03*
Y440000D02*
D03*
Y420000D02*
D03*
Y410000D02*
D03*
Y390000D02*
D03*
Y370000D02*
D03*
Y360000D02*
D03*
Y350000D02*
D03*
Y340000D02*
D03*
X287000Y460000D02*
D03*
Y450000D02*
D03*
Y440000D02*
D03*
Y430000D02*
D03*
Y410000D02*
D03*
Y400000D02*
D03*
Y390000D02*
D03*
Y380000D02*
D03*
Y360000D02*
D03*
Y350000D02*
D03*
Y340000D02*
D03*
D52*
X455000Y454000D02*
D03*
D53*
Y469551D02*
D03*
D54*
X306000Y181000D02*
D03*
X256000Y197000D02*
D03*
X217000Y180000D02*
D03*
X205000D02*
D03*
X296000Y291000D02*
D03*
X246000Y292000D02*
D03*
X236000D02*
D03*
X226000D02*
D03*
X315000D02*
D03*
X159000Y274000D02*
D03*
X118000Y288000D02*
D03*
Y281000D02*
D03*
X132000Y274000D02*
D03*
X125000D02*
D03*
X118000D02*
D03*
X154000Y330000D02*
D03*
X147000D02*
D03*
X139000D02*
D03*
X131000D02*
D03*
X123000D02*
D03*
X450000Y480000D02*
D03*
Y440000D02*
D03*
Y380000D02*
D03*
Y360000D02*
D03*
Y240000D02*
D03*
X440000Y480000D02*
D03*
Y440000D02*
D03*
Y420000D02*
D03*
Y400000D02*
D03*
Y380000D02*
D03*
Y360000D02*
D03*
Y340000D02*
D03*
Y240000D02*
D03*
X430000Y460000D02*
D03*
X435000Y450000D02*
D03*
X430000Y440000D02*
D03*
Y420000D02*
D03*
X435000Y410000D02*
D03*
X430000Y400000D02*
D03*
X435000Y390000D02*
D03*
X430000Y380000D02*
D03*
Y300000D02*
D03*
X435000Y290000D02*
D03*
X430000Y260000D02*
D03*
Y240000D02*
D03*
X420000Y480000D02*
D03*
X425000Y450000D02*
D03*
Y410000D02*
D03*
Y390000D02*
D03*
X420000Y380000D02*
D03*
Y300000D02*
D03*
X425000Y290000D02*
D03*
Y270000D02*
D03*
X420000Y260000D02*
D03*
X425000Y250000D02*
D03*
X420000Y240000D02*
D03*
X410000Y480000D02*
D03*
Y380000D02*
D03*
Y360000D02*
D03*
Y300000D02*
D03*
X415000Y290000D02*
D03*
Y270000D02*
D03*
X410000Y260000D02*
D03*
X415000Y250000D02*
D03*
X400000Y480000D02*
D03*
X405000Y470000D02*
D03*
X400000Y460000D02*
D03*
X405000Y450000D02*
D03*
X400000Y440000D02*
D03*
Y420000D02*
D03*
Y400000D02*
D03*
Y380000D02*
D03*
Y360000D02*
D03*
Y300000D02*
D03*
Y260000D02*
D03*
X405000Y250000D02*
D03*
X395000Y470000D02*
D03*
X390000Y420000D02*
D03*
X395000Y410000D02*
D03*
X390000Y400000D02*
D03*
X395000Y390000D02*
D03*
X390000Y380000D02*
D03*
Y360000D02*
D03*
Y300000D02*
D03*
Y260000D02*
D03*
X395000Y250000D02*
D03*
X380000Y480000D02*
D03*
Y460000D02*
D03*
Y440000D02*
D03*
Y380000D02*
D03*
Y360000D02*
D03*
X385000Y350000D02*
D03*
X380000Y340000D02*
D03*
X385000Y330000D02*
D03*
X380000Y320000D02*
D03*
X385000Y310000D02*
D03*
X380000Y300000D02*
D03*
X385000Y290000D02*
D03*
X380000Y280000D02*
D03*
X385000Y270000D02*
D03*
X380000Y260000D02*
D03*
X385000Y250000D02*
D03*
X370000Y480000D02*
D03*
X375000Y470000D02*
D03*
X370000Y460000D02*
D03*
X375000Y450000D02*
D03*
X370000Y440000D02*
D03*
Y380000D02*
D03*
Y360000D02*
D03*
X375000Y350000D02*
D03*
X370000Y340000D02*
D03*
X375000Y330000D02*
D03*
X370000Y320000D02*
D03*
X375000Y310000D02*
D03*
Y290000D02*
D03*
Y270000D02*
D03*
Y250000D02*
D03*
X360000Y480000D02*
D03*
X365000Y470000D02*
D03*
X360000Y460000D02*
D03*
X365000Y450000D02*
D03*
X360000Y440000D02*
D03*
X365000Y430000D02*
D03*
X360000Y420000D02*
D03*
Y400000D02*
D03*
Y380000D02*
D03*
Y360000D02*
D03*
X365000Y350000D02*
D03*
X360000Y340000D02*
D03*
X365000Y330000D02*
D03*
X360000Y320000D02*
D03*
X365000Y310000D02*
D03*
X360000Y280000D02*
D03*
Y260000D02*
D03*
Y240000D02*
D03*
X329000Y410000D02*
D03*
X368000Y371000D02*
D03*
X390000D02*
D03*
X332000Y304000D02*
D03*
X281000Y319000D02*
D03*
X248000Y377000D02*
D03*
X329000Y380000D02*
D03*
Y400000D02*
D03*
X158000Y350000D02*
D03*
M02*
