G04*
G04 #@! TF.GenerationSoftware,Altium Limited,Altium Designer,22.1.2 (22)*
G04*
G04 Layer_Color=16711935*
%FSLAX25Y25*%
%MOIN*%
G70*
G04*
G04 #@! TF.SameCoordinates,ACF9E84F-248F-408C-B087-6DC18E25A492*
G04*
G04*
G04 #@! TF.FilePolarity,Negative*
G04*
G01*
G75*
%ADD27C,0.06394*%
%ADD28R,0.10394X0.05394*%
%ADD29O,0.10394X0.05394*%
%ADD30C,0.10236*%
%ADD31R,0.10236X0.10236*%
%ADD32C,0.05394*%
D27*
X379000Y193000D02*
D03*
X369000D02*
D03*
X339000D02*
D03*
X329000D02*
D03*
X349000D02*
D03*
X359000D02*
D03*
X121000Y432000D02*
D03*
Y452000D02*
D03*
Y442000D02*
D03*
Y390000D02*
D03*
Y410000D02*
D03*
Y400000D02*
D03*
D28*
X197000Y470000D02*
D03*
Y460000D02*
D03*
Y430000D02*
D03*
Y400000D02*
D03*
Y380000D02*
D03*
Y330000D02*
D03*
X287000Y470000D02*
D03*
Y420000D02*
D03*
Y370000D02*
D03*
Y330000D02*
D03*
D29*
X197000Y450000D02*
D03*
Y440000D02*
D03*
Y420000D02*
D03*
Y410000D02*
D03*
Y390000D02*
D03*
Y370000D02*
D03*
Y360000D02*
D03*
Y350000D02*
D03*
Y340000D02*
D03*
X287000Y460000D02*
D03*
Y450000D02*
D03*
Y440000D02*
D03*
Y430000D02*
D03*
Y410000D02*
D03*
Y400000D02*
D03*
Y390000D02*
D03*
Y380000D02*
D03*
Y360000D02*
D03*
Y350000D02*
D03*
Y340000D02*
D03*
D30*
X455000Y454000D02*
D03*
D31*
Y469551D02*
D03*
D32*
X306000Y181000D02*
D03*
M02*
