M48
;Layer_Color=9474304
;FILE_FORMAT=2:4
INCH,TZ
;TYPE=PLATED
T1F00S00C0.0250
T2F00S00C0.0280
T3F00S00C0.0300
T4F00S00C0.0500
T5F00S00C0.0512
T6F00S00C0.0700
%
T01
X19700Y33000
Y34000
Y35000
Y36000
Y37000
Y38000
Y39000
Y40000
Y41000
Y42000
Y43000
Y44000
Y45000
Y46000
X28700
Y45000
Y44000
Y43000
Y42000
Y41000
Y40000
Y39000
Y38000
Y37000
Y36000
Y35000
Y34000
Y33000
Y47000
X19700
T02
X33300Y30400
X28100Y31900
X24800Y37700
X15800Y35000
X32900Y38000
Y40000
Y41000
X36800Y37100
X36700Y35600
Y34600
Y33600
Y32600
Y31600
X37700
Y32600
Y33600
Y34600
Y35600
X39000Y37100
T03
X17620Y18451
X18620
X19620
X22600
X23600
X24600
X25600
X26600
X27600
X28600
X29600
Y27900
X28600
X27600
X26600
X25600
X24600
X23600
X22600
X19620
X18620
X17620
T04
X33900Y19300
X34900
X35900
X36900
X37900
X12000Y38000
Y39000
Y40000
Y42200
Y43200
Y44200
T05
X11200Y29800
X13200
X12200Y30800
X13200Y31800
X11200
T06
X45500Y45400
Y46955
M30
