M48
;Layer_Color=9474304
;FILE_FORMAT=2:4
INCH,TZ
;TYPE=PLATED
T1F00S00C0.0250
T2F00S00C0.0280
T3F00S00C0.0300
T4F00S00C0.0394
T5F00S00C0.0500
T6F00S00C0.0700
%
T01
X19700Y33000
Y34000
Y35000
Y36000
Y37000
Y38000
Y39000
Y40000
Y41000
Y42000
Y43000
Y44000
Y45000
Y46000
X28700
Y45000
Y44000
Y43000
Y42000
Y41000
Y40000
Y39000
Y38000
Y37000
Y36000
Y35000
Y34000
Y33000
Y47000
X19700
T02
X36000Y24000
Y26000
X38000
X39000
X40000
X41000
X42000
X43000
X42500Y27000
X41500
Y29000
X42500
X43500
X43000Y30000
X42000
X41000
X40000
X39000
X38000
X38500Y31000
X37500
X36500
X37500Y29000
X38500
X38000Y28000
X38500Y27000
X37500
Y25000
X38500
X39500
X40500
X41500
X42500
X43000Y24000
X44000
X45000
X42000
X36000Y28000
X33300Y30400
X19086Y30496
X19238Y29916
Y29302
X18001Y29244
Y30030
X18162Y31207
X16221Y30181
X18365Y26957
X18965Y26972
X15581Y30181
X13223Y30393
X13153Y31207
X13752
X14796Y31407
X15396Y31419
X15994
X16587Y31326
X17596Y31407
X15800Y35000
X24800Y37700
X28100Y31900
X36000Y32000
X37000
X38000
X38500Y33000
X37500
X36500
X37000Y34000
X38000
X38500Y35000
X37500
X36500
X37000Y36000
X38000
X39000
X40000
X41000
Y38000
X42000
X43000
X44000
X45000
Y36000
X44000
Y34000
X43500Y39000
X42500
X43000Y40000
X44000
X43500Y41000
X42500
X43000Y42000
X44000
Y44000
X45000
X43000
X43500Y45000
X42500
X43000Y46000
X40000
X40500Y45000
X40000Y44000
Y42000
X39000
X39500Y41000
X38500
X39000Y40000
X40000
X39500Y39000
X38500
X39000Y38000
Y37100
X40000Y38000
X38000
X37000
X36000
X36500Y39000
X36000Y40000
X36500Y41000
X36000Y42000
X36500Y43000
X37000Y44000
X38000
X37500Y45000
X36500
X37000Y46000
X38000
X36000
Y44000
X32900Y41000
Y40000
Y38000
X36800Y37100
X36000Y36000
Y34000
X42000Y40000
Y42000
Y48000
X41000
X40000
X40500Y47000
X39500
X37500
X36500
X37000Y48000
X38000
X36000
X44000
X45000
T03
X17620Y18451
X18620
X19620
X22600
X23600
X24600
X25600
X26600
X27600
X28600
X29600
Y27900
X28600
X27600
X26600
X25600
X24600
X23600
X22600
X19620
X18620
X17620
T04
X32900Y19300
X33900
X34900
X35900
X36900
X37900
T05
X12000Y38000
Y39000
Y40000
Y42200
Y43200
Y44200
T06
X45500Y45400
Y46955
M30
